<?xml version="1.0" encoding="UTF-8" standalone="no"?><!DOCTYPE svg PUBLIC "-//W3C//DTD SVG 1.1//EN" "http://www.w3.org/Graphics/SVG/1.1/DTD/svg11.dtd"><svg width="100%" height="100%" viewBox="0 0 605 684" version="1.1" xmlns="http://www.w3.org/2000/svg" xmlns:xlink="http://www.w3.org/1999/xlink" xml:space="preserve" xmlns:serif="http://www.serif.com/" style="fill-rule:evenodd;clip-rule:evenodd;stroke-linejoin:round;stroke-miterlimit:2;"><path d="M281.565,11.609c12.731,-7.203 28.306,-7.203 41.037,0c54.907,31.067 204.791,115.872 260.417,147.345c13.068,7.394 21.148,21.249 21.148,36.264l-0,293.243c-0,15.015 -8.08,28.87 -21.148,36.264c-55.626,31.473 -205.51,116.278 -260.417,147.344c-12.731,7.204 -28.306,7.204 -41.037,0c-54.907,-31.066 -204.791,-115.871 -260.417,-147.344c-13.069,-7.394 -21.148,-21.249 -21.148,-36.264c0,-62.873 0,-230.37 0,-293.243c-0,-15.015 8.079,-28.87 21.148,-36.264c55.626,-31.473 205.51,-116.278 260.417,-147.345Z" style="fill:#bd3d3d;fill-opacity:0.75;"/><clipPath id="_clip1"><path d="M281.565,11.609c12.731,-7.203 28.306,-7.203 41.037,0c54.907,31.067 204.791,115.872 260.417,147.345c13.068,7.394 21.148,21.249 21.148,36.264l-0,293.243c-0,15.015 -8.08,28.87 -21.148,36.264c-55.626,31.473 -205.51,116.278 -260.417,147.344c-12.731,7.204 -28.306,7.204 -41.037,0c-54.907,-31.066 -204.791,-115.871 -260.417,-147.344c-13.069,-7.394 -21.148,-21.249 -21.148,-36.264c0,-62.873 0,-230.37 0,-293.243c-0,-15.015 8.079,-28.87 21.148,-36.264c55.626,-31.473 205.51,-116.278 260.417,-147.345Z"/></clipPath><g clip-path="url(#_clip1)"><path d="M604.167,-59.012c-0,-40.014 -32.486,-72.5 -72.5,-72.5l-459.167,0c-40.014,0 -72.5,32.486 -72.5,72.5l-0,710.317c-0,40.014 32.486,72.5 72.5,72.5l459.167,0c40.014,0 72.5,-32.486 72.5,-72.5l-0,-710.317Z" style="fill:url(#_Linear2);"/><path d="M604.167,16.207c-0,-40.014 -32.486,-72.5 -72.5,-72.5l-459.167,0c-40.014,0 -72.5,32.486 -72.5,72.5l0,735.053c0,40.013 32.486,72.5 72.5,72.5l459.167,-0c40.014,-0 72.5,-32.487 72.5,-72.5l-0,-735.053Z" style="fill:url(#_Linear3);"/></g><text x="72.686px" y="362.232px" style="font-family:'Arial-BoldMT', 'Arial', sans-serif;font-weight:700;font-size:83.333px;fill:#fff;">Step 4 logo</text><defs><linearGradient id="_Linear2" x1="0" y1="0" x2="1" y2="0" gradientUnits="userSpaceOnUse" gradientTransform="matrix(604.167,0,0,855.317,-1.69393e-11,296.147)"><stop offset="0" style="stop-color:#d94d00;stop-opacity:1"/><stop offset="1" style="stop-color:#ffcf5f;stop-opacity:1"/></linearGradient><linearGradient id="_Linear3" x1="0" y1="0" x2="1" y2="0" gradientUnits="userSpaceOnUse" gradientTransform="matrix(604.167,0,0,880.053,7.50333e-12,383.733)"><stop offset="0" style="stop-color:#9444cb;stop-opacity:0.6"/><stop offset="0.45" style="stop-color:#5b0fdb;stop-opacity:0.84"/><stop offset="1" style="stop-color:#4c00df;stop-opacity:0.9"/></linearGradient></defs></svg>