<svg xmlns="http://www.w3.org/2000/svg" viewBox="0 0 176 176" fill-rule="evenodd" stroke-linejoin="round" stroke-miterlimit="2" xmlns:v="https://vecta.io/nano"><clipPath id="A"><path d="M0 0h176v176H0z"/></clipPath><g clip-path="url(#A)"><g fill="#646464"><path d="M73.349 10.135a10.88 10.88 0 0 0-15.371 0l-47.73 47.731c-4.242 4.241-4.242 11.129 0 15.37l91.733 91.734c4.242 4.242 11.129 4.242 15.371 0l47.73-47.73c4.242-4.242 4.242-11.129 0-15.371L73.349 10.135zm-4.513 6.007a4.49 4.49 0 0 0-6.345 0L15.962 62.671a4.49 4.49 0 0 0 0 6.345l90.24 90.239a4.49 4.49 0 0 0 6.345 0l46.528-46.528a4.49 4.49 0 0 0 0-6.345l-90.239-90.24z"/><circle cx="124.19" cy="124.23" r="7.305"/><path d="M44.859 37.471c.693-.74 1.679-1.202 2.772-1.202a3.8 3.8 0 0 1 3.799 3.799c0 1.093-.463 2.078-1.202 2.772l.033.033-7.716 7.716-.04-.04c-.664.57-1.528.915-2.471.915a3.8 3.8 0 0 1-3.799-3.799c0-.943.344-1.807.915-2.471l-.04-.04 7.716-7.716.033.033z"/><circle cx="65.749" cy="21.95" r="3.799"/></g><g transform="matrix(0 1 1 0 -.000222 .67)"><path d="M87.375.058l-.002-.024c1.4-.076 3.399 0 4.821 0 44.98 0 81.711 39.443 83.133 87.535.001.011.001.022.001.034l.002.04h-.001c0 .019.001.037.001.056 0 2.096-1.703 3.799-3.799 3.799-1.917 0-3.504-1.423-3.762-3.269l-.037.003c-3.694-41.718-32.485-75.323-69.072-80.567l9.537 7.647-.004.005c-.024-.022-.049-.043-.073-.063.024.02.049.041.073.063l.02.017a3.86 3.86 0 0 1 1.368 2.963 3.95 3.95 0 0 1-3.945 3.945c-.887 0-1.705-.293-2.356-.798l-.005.007L85.194 6.954l.021-.027-.019-.016c-.82-.711-1.33-1.763-1.33-2.932A3.95 3.95 0 0 1 87.375.058zm14.451 19.263a3.8 3.8 0 0 0 .056.19l-.009-.027c-.017-.054-.032-.108-.047-.163zm-.016-.059c.003.009.005.019.008.028-.003-.009-.005-.019-.008-.028zm-.083-.429c.005.038.011.076.017.114l-.017-.114zm-.014-.118l.001.011-.001-.011-.002-.016.002.016zm.079-1.308l-.016.072.006-.024c.003-.016.007-.032.01-.048zm.014-.059l.009-.036-.009.036zm.328-.867l-.054.107.011-.022c.017-.035.035-.071.054-.106l-.011.021zm.08-.146l-.045.08.045-.08zm.061-.103c-.009.016-.019.031-.028.047a1.16 1.16 0 0 1 .028-.047zm.083-.128l-.019.028.013-.02.006-.008zm.523-.629l-.084.084.017-.017.067-.067zm.068-.065c-.009.009-.019.018-.028.027l.011-.011.017-.016zm.088-.079l-.015.013.015-.013.013-.012-.013.012zm3.217-.93c.696.11 1.331.405 1.848.838-.517-.433-1.152-.728-1.848-.838zm-2.939.708c-.011.007-.021.015-.031.022l.011-.008.02-.014zm.056-.041l-.037.027.019-.014.018-.013zm.187-.124l-.037.024.037-.024zm.157-.092l.02-.012-.14.082a3.44 3.44 0 0 1 .12-.07zm.211-.11l.022-.01c-.018.008-.036.017-.054.026.011-.006.021-.011.032-.016zm.151-.069l-.029.013.029-.013zm.158-.064l.023-.009-.023.009zm.703-.195l-.13.026c.035-.008.071-.015.106-.021l.024-.005zm.098-.016l-.025.004.025-.004zm1.031-.022l.014.001-.014-.001-.01-.001.01.001zm-.568-.021c-.083.003-.167.008-.249.016a4.16 4.16 0 0 1 .249-.016zm.415.007h-.004.004zm-.187-.008l.137.005c-.046-.003-.091-.004-.137-.005zm-.034-.001h-.057l-.114.001c.038-.001.076-.001.114-.001h.057zM88.796 7.8c-.314.081-.645.124-.985.124-.972 0-1.862-.352-2.54-.947l-.023-.02.023.02c.678.595 1.568.947 2.54.947.34 0 .671-.043.985-.124zm.649-.23c-.171.078-.348.144-.531.197l-.024.007a3.87 3.87 0 0 0 .555-.204zm.39-.205c-.116.069-.236.133-.36.191.131-.061.258-.129.381-.204l-.021.013zm.102-.063l-.053.033c.024-.015.049-.03.072-.046l-.019.013zm.072-.048l.007-.004.02-.014-.02.014-.007.004zm.177-.126a3.12 3.12 0 0 1-.092.068l-.019.013c.037-.026.074-.053.111-.081zm.041-.031l-.017.013c.012-.009.024-.019.036-.028l-.019.015zm.147-.12l-.018.015-.009.007c.009-.007.018-.015.027-.022z" fill="#646464"/></g><g transform="matrix(0 1 1 0 .632222 0)"><path d="M87.955 175.31l.002.024c-1.401.076-3.399 0-4.822 0-44.98 0-81.71-39.444-83.133-87.536 0-.011-.001-.022-.001-.033L0 87.724v-.055a3.8 3.8 0 0 1 3.799-3.799c1.917 0 3.504 1.423 3.762 3.269l.037-.003c3.694 41.717 32.485 75.323 69.072 80.567l-9.537-7.647.004-.005.073.063-.073-.063-.02-.017a3.86 3.86 0 0 1-1.368-2.964 3.95 3.95 0 0 1 3.945-3.945c.886 0 1.705.293 2.355.799l.006-.007 18.081 14.496-.022.027.02.017c.82.711 1.33 1.762 1.33 2.932a3.95 3.95 0 0 1-3.509 3.921zm-14.451-19.264c-.017-.064-.036-.127-.057-.19l.009.028c.017.053.033.108.048.162zm.015.06c-.002-.01-.005-.019-.007-.028.002.009.005.018.007.028zm.083.429c-.005-.038-.011-.076-.017-.114l.017.114zm.014.117l-.001-.01.001.01.002.017-.002-.017zm-.079 1.309c.006-.024.011-.048.016-.072l-.005.024c-.003.016-.007.032-.011.048zm-.017.071l-.006.023.009-.036-.003.013zm-.324.855l.053-.107-.01.021-.054.107.011-.021zm-.081.146a1.61 1.61 0 0 0 .045-.08 1.26 1.26 0 0 1-.045.08zm-.06.102l.028-.046-.028.046zm-.083.129c.006-.009.012-.019.019-.028l-.013.019-.006.009zm-.523.628c.028-.027.056-.055.083-.084l-.016.017c-.022.023-.045.045-.067.067zm-.069.066c.01-.009.019-.018.029-.027l-.011.01-.018.017zm-.088.079l.016-.013-.016.013-.013.012.013-.012zm-3.216.93a3.81 3.81 0 0 1-1.849-.838 3.81 3.81 0 0 0 1.849.838zm2.939-.708a.62.62 0 0 0 .031-.023l-.012.009-.019.014zm-.056.041l.037-.027-.019.014-.018.013zm-.187.123c.012-.008.024-.015.036-.023-.012.008-.024.015-.036.023zm-.157.093l-.021.011a3.23 3.23 0 0 0 .141-.081l-.12.07zm-.212.11l-.021.01c.018-.009.036-.017.054-.026a.5.5 0 0 0-.033.016zm-.13.06l.009-.004-.009.004-.021.009.021-.009zm-.179.073l-.022.008c.008-.003.015-.006.022-.008zm-.703.194c.044-.007.087-.016.13-.025l-.105.021-.025.004zm-.097.017l.024-.004-.024.004zm-1.031.022l-.014-.002.014.002.009.001-.009-.001zm.567.021a4.14 4.14 0 0 0 .25-.017 4.14 4.14 0 0 1-.25.017zm-.414-.008l.004.001-.004-.001zm.187.009a6.05 6.05 0 0 1-.137-.005l.137.005zm.033.001h.058c.038 0 .076-.001.113-.002l-.113.002h-.058zm16.897 6.553a3.95 3.95 0 0 1 .986-.124c.972 0 1.862.352 2.54.947l.007.006.016.014-.016-.014-.007-.006c-.678-.595-1.568-.947-2.54-.947a3.95 3.95 0 0 0-.986.124zm-.649.23c.171-.078.349-.145.532-.198l.023-.006c-.191.054-.376.122-.555.204zm-.39.205a3.75 3.75 0 0 1 .36-.191 3.94 3.94 0 0 0-.38.203l.02-.012zm-.101.063c.017-.012.035-.023.053-.033l-.073.045.02-.012zm-.073.047l-.006.005-.02.013.02-.013.006-.005zm-.176.126a3.09 3.09 0 0 1 .092-.067l.019-.014-.111.081zm-.042.032l.018-.013a.88.88 0 0 0-.036.028l.018-.015zm-.146.12l.018-.016.008-.007c-.009.008-.018.015-.026.023z" fill="#646464"/></g></g></svg>