<?xml version="1.0" encoding="UTF-8"?>
<!DOCTYPE svg  PUBLIC '-//W3C//DTD SVG 1.1//EN'  'http://www.w3.org/Graphics/SVG/1.1/DTD/svg11.dtd'>
<svg clip-rule="evenodd" fill-rule="evenodd" stroke-linejoin="round" stroke-miterlimit="2" version="1.1" viewBox="0 0 176 176" xml:space="preserve" xmlns="http://www.w3.org/2000/svg"><g fill="#646464"><path d="m73.349 10.135c-4.242-4.241-11.129-4.241-15.371 0l-47.73 47.731c-4.242 4.241-4.242 11.129-0 15.37l91.733 91.734c4.242 4.242 11.129 4.242 15.371-0l47.73-47.73c4.242-4.242 4.242-11.129 0-15.371l-91.733-91.734zm-4.513 6.007c-1.751-1.751-4.594-1.751-6.345 0l-46.529 46.529c-1.751 1.751-1.751 4.594 0 6.345l90.24 90.239c1.751 1.751 4.594 1.751 6.345 0l46.528-46.528c1.751-1.751 1.751-4.594 0-6.345l-90.239-90.24z"/><circle cx="124.19" cy="124.23" r="7.305"/><path d="m44.859 37.471c0.693-0.74 1.679-1.202 2.772-1.202 2.097-0 3.799 1.702 3.799 3.799 0 1.093-0.463 2.078-1.202 2.772l0.033 0.033-7.716 7.716-0.04-0.04c-0.664 0.57-1.528 0.915-2.471 0.915-2.097 0-3.799-1.702-3.799-3.799-0-0.943 0.344-1.807 0.915-2.471l-0.04-0.04 7.716-7.716 0.033 0.033z"/><circle cx="65.749" cy="21.95" r="3.799"/><path d="m87.375 0.058-2e-3 -0.024c1.4-0.076 3.399-0 4.821-0 44.98-0 81.711 39.443 83.133 87.535 1e-3 0.011 1e-3 0.022 1e-3 0.034l2e-3 0.04h-1e-3c0 0.019 1e-3 0.037 1e-3 0.056-0 2.096-1.703 3.799-3.799 3.799-1.917-0-3.504-1.423-3.762-3.269l-0.037 3e-3c-3.694-41.718-32.485-75.323-69.072-80.567l9.537 7.647-4e-3 5e-3c-0.024-0.022-0.049-0.043-0.073-0.063 0.024 0.02 0.049 0.041 0.073 0.063l0.02 0.017c0.842 0.71 1.368 1.776 1.368 2.963-0 2.178-1.768 3.945-3.945 3.945-0.887 0-1.705-0.293-2.356-0.798l-5e-3 7e-3 -18.081-14.497 0.021-0.027-0.019-0.016c-0.82-0.711-1.33-1.763-1.33-2.932-0-2.03 1.536-3.704 3.509-3.921zm14.451 19.263c0.017 0.064 0.036 0.128 0.056 0.19l-9e-3 -0.027c-0.017-0.054-0.032-0.108-0.047-0.163zm-0.016-0.059c3e-3 9e-3 5e-3 0.019 8e-3 0.028-3e-3 -9e-3 -5e-3 -0.019-8e-3 -0.028zm-0.083-0.429c5e-3 0.038 0.011 0.076 0.017 0.114-6e-3 -0.038-0.012-0.076-0.017-0.114zm-0.014-0.118 1e-3 0.011-1e-3 -0.011-2e-3 -0.016 2e-3 0.016zm0.079-1.308c-5e-3 0.024-0.011 0.048-0.016 0.072l6e-3 -0.024c3e-3 -0.016 7e-3 -0.032 0.01-0.048zm0.017-0.071 6e-3 -0.024-9e-3 0.036 3e-3 -0.012zm0.325-0.855c-0.018 0.035-0.036 0.071-0.054 0.107l0.011-0.022c0.017-0.035 0.035-0.071 0.054-0.106l-0.011 0.021zm0.08-0.146c-0.015 0.026-0.03 0.053-0.045 0.08 0.015-0.027 0.03-0.054 0.045-0.08zm0.061-0.103c-9e-3 0.016-0.019 0.031-0.028 0.047 9e-3 -0.016 0.018-0.031 0.028-0.047zm0.083-0.128c-6e-3 9e-3 -0.013 0.019-0.019 0.028l0.013-0.02 6e-3 -8e-3zm0.523-0.629-0.084 0.084 0.017-0.017c0.022-0.022 0.044-0.045 0.067-0.067zm0.068-0.065c-9e-3 9e-3 -0.019 0.018-0.028 0.027l0.011-0.011 0.017-0.016zm0.088-0.079-0.015 0.013 0.015-0.013 0.013-0.012-0.013 0.012zm3.217-0.93c0.696 0.11 1.331 0.405 1.848 0.838-0.517-0.433-1.152-0.728-1.848-0.838zm-2.939 0.708c-0.011 7e-3 -0.021 0.015-0.031 0.022l0.011-8e-3 0.02-0.014zm0.056-0.041c-0.012 9e-3 -0.025 0.018-0.037 0.027l0.019-0.014 0.018-0.013zm0.187-0.124c-0.012 8e-3 -0.025 0.016-0.037 0.024 0.012-8e-3 0.025-0.016 0.037-0.024zm0.157-0.092 0.02-0.012c-0.047 0.027-0.094 0.054-0.14 0.082 0.039-0.024 0.079-0.047 0.12-0.07zm0.211-0.11 0.022-0.01c-0.018 8e-3 -0.036 0.017-0.054 0.026 0.011-6e-3 0.021-0.011 0.032-0.016zm0.131-0.06-9e-3 4e-3 9e-3 -4e-3 0.02-9e-3 -0.02 9e-3zm0.178-0.073 0.023-9e-3c-8e-3 3e-3 -0.015 6e-3 -0.023 9e-3zm0.703-0.195c-0.043 8e-3 -0.087 0.017-0.13 0.026 0.035-8e-3 0.071-0.015 0.106-0.021l0.024-5e-3zm0.098-0.016-0.025 4e-3 0.025-4e-3zm1.031-0.022 0.014 1e-3 -0.014-1e-3 -0.01-1e-3 0.01 1e-3zm-0.568-0.021c-0.083 3e-3 -0.167 8e-3 -0.249 0.016 0.083-8e-3 0.166-0.013 0.249-0.016zm0.415 7e-3h-4e-3 4e-3zm-0.187-8e-3c0.046 1e-3 0.091 2e-3 0.137 5e-3 -0.046-3e-3 -0.091-4e-3 -0.137-5e-3zm-0.034-1e-3h-0.057c-0.038-0-0.076 0-0.114 1e-3 0.038-1e-3 0.076-1e-3 0.114-1e-3h0.057zm-16.897-6.553c-0.314 0.081-0.645 0.124-0.985 0.124-0.972-0-1.862-0.352-2.54-0.947l-7e-3 -6e-3 -0.016-0.014 0.016 0.014 7e-3 6e-3c0.678 0.595 1.568 0.947 2.54 0.947 0.34-0 0.671-0.043 0.985-0.124zm0.649-0.23c-0.171 0.078-0.348 0.144-0.531 0.197l-0.024 7e-3c0.192-0.054 0.377-0.123 0.555-0.204zm0.39-0.205c-0.116 0.069-0.236 0.133-0.36 0.191 0.131-0.061 0.258-0.129 0.381-0.204l-0.021 0.013zm0.102-0.063c-0.018 0.011-0.035 0.022-0.053 0.033 0.024-0.015 0.049-0.03 0.072-0.046l-0.019 0.013zm0.072-0.048 7e-3 -4e-3 0.02-0.014-0.02 0.014-7e-3 4e-3zm0.177-0.126c-0.03 0.023-0.061 0.046-0.092 0.068l-0.019 0.013c0.037-0.026 0.074-0.053 0.111-0.081zm0.041-0.031-0.017 0.013c0.012-9e-3 0.024-0.019 0.036-0.028l-0.019 0.015zm0.147-0.12-0.018 0.015-9e-3 7e-3c9e-3 -7e-3 0.018-0.015 0.027-0.022z"/><path d="m87.955 175.31 2e-3 0.024c-1.401 0.076-3.399-0-4.822-0-44.98-0-81.71-39.444-83.133-87.536-0-0.011-1e-3 -0.022-1e-3 -0.033l-1e-3 -0.041v-0.055c0-2.097 1.702-3.799 3.799-3.799 1.917-0 3.504 1.423 3.762 3.269l0.037-3e-3c3.694 41.717 32.485 75.323 69.072 80.567l-9.537-7.647 4e-3 -5e-3c0.024 0.021 0.048 0.042 0.073 0.063-0.025-0.021-0.049-0.042-0.073-0.063l-0.02-0.017c-0.843-0.711-1.368-1.776-1.368-2.964-0-2.177 1.767-3.945 3.945-3.945 0.886 0 1.705 0.293 2.355 0.799l6e-3 -7e-3 18.081 14.496-0.022 0.027 0.02 0.017c0.82 0.711 1.33 1.762 1.33 2.932-0 2.03-1.537 3.703-3.509 3.921zm-14.451-19.264c-0.017-0.064-0.036-0.127-0.057-0.19l9e-3 0.028c0.017 0.053 0.033 0.108 0.048 0.162zm0.015 0.06c-2e-3 -0.01-5e-3 -0.019-7e-3 -0.028 2e-3 9e-3 5e-3 0.018 7e-3 0.028zm0.083 0.429c-5e-3 -0.038-0.011-0.076-0.017-0.114 6e-3 0.038 0.012 0.076 0.017 0.114zm0.014 0.117-1e-3 -0.01 1e-3 0.01 2e-3 0.017-2e-3 -0.017zm-0.079 1.309c6e-3 -0.024 0.011-0.048 0.016-0.072l-5e-3 0.024c-3e-3 0.016-7e-3 0.032-0.011 0.048zm-0.017 0.071-6e-3 0.023 9e-3 -0.036-3e-3 0.013zm-0.324 0.855c0.018-0.036 0.036-0.071 0.053-0.107l-0.01 0.021c-0.018 0.036-0.036 0.072-0.054 0.107l0.011-0.021zm-0.081 0.146c0.016-0.027 0.031-0.053 0.045-0.08-0.014 0.027-0.029 0.054-0.045 0.08zm-0.06 0.102c9e-3 -0.015 0.019-0.031 0.028-0.046-9e-3 0.015-0.019 0.031-0.028 0.046zm-0.083 0.129c6e-3 -9e-3 0.012-0.019 0.019-0.028l-0.013 0.019-6e-3 9e-3zm-0.523 0.628c0.028-0.027 0.056-0.055 0.083-0.084l-0.016 0.017c-0.022 0.023-0.045 0.045-0.067 0.067zm-0.069 0.066c0.01-9e-3 0.019-0.018 0.029-0.027l-0.011 0.01-0.018 0.017zm-0.088 0.079 0.016-0.013-0.016 0.013-0.013 0.012 0.013-0.012zm-3.216 0.93c-0.697-0.111-1.331-0.405-1.849-0.838 0.518 0.433 1.152 0.727 1.849 0.838zm2.939-0.708c0.01-7e-3 0.021-0.015 0.031-0.023l-0.012 9e-3 -0.019 0.014zm-0.056 0.041c0.012-9e-3 0.024-0.018 0.037-0.027l-0.019 0.014-0.018 0.013zm-0.187 0.123c0.012-8e-3 0.024-0.015 0.036-0.023-0.012 8e-3 -0.024 0.015-0.036 0.023zm-0.157 0.093-0.021 0.011c0.048-0.026 0.095-0.053 0.141-0.081-0.04 0.024-0.08 0.047-0.12 0.07zm-0.212 0.11-0.021 0.01c0.018-9e-3 0.036-0.017 0.054-0.026-0.011 5e-3 -0.022 0.01-0.033 0.016zm-0.13 0.06 9e-3 -4e-3 -9e-3 4e-3 -0.021 9e-3 0.021-9e-3zm-0.179 0.073-0.022 8e-3c8e-3 -3e-3 0.015-6e-3 0.022-8e-3zm-0.703 0.194c0.044-7e-3 0.087-0.016 0.13-0.025l-0.105 0.021-0.025 4e-3zm-0.097 0.017 0.024-4e-3 -0.024 4e-3zm-1.031 0.022-0.014-2e-3 0.014 2e-3 9e-3 1e-3 -9e-3 -1e-3zm0.567 0.021c0.084-3e-3 0.167-9e-3 0.25-0.017-0.083 8e-3 -0.166 0.014-0.25 0.017zm-0.414-8e-3 4e-3 1e-3 -4e-3 -1e-3zm0.187 9e-3c-0.046-1e-3 -0.092-3e-3 -0.137-5e-3 0.045 2e-3 0.091 4e-3 0.137 5e-3zm0.033 1e-3h0.058c0.038 0 0.076-1e-3 0.113-2e-3 -0.037 1e-3 -0.075 2e-3 -0.113 2e-3h-0.058zm16.897 6.553c0.315-0.081 0.645-0.124 0.986-0.124 0.972-0 1.862 0.352 2.54 0.947l7e-3 6e-3 0.016 0.014-0.016-0.014-7e-3 -6e-3c-0.678-0.595-1.568-0.947-2.54-0.947-0.341-0-0.671 0.043-0.986 0.124zm-0.649 0.23c0.171-0.078 0.349-0.145 0.532-0.198l0.023-6e-3c-0.191 0.054-0.376 0.122-0.555 0.204zm-0.39 0.205c0.116-0.07 0.237-0.134 0.36-0.191-0.131 0.061-0.258 0.129-0.38 0.203l0.02-0.012zm-0.101 0.063c0.017-0.012 0.035-0.023 0.053-0.033-0.025 0.015-0.049 0.03-0.073 0.045l0.02-0.012zm-0.073 0.047-6e-3 5e-3 -0.02 0.013 0.02-0.013 6e-3 -5e-3zm-0.176 0.126c0.03-0.023 0.061-0.045 0.092-0.067l0.019-0.014c-0.038 0.027-0.075 0.054-0.111 0.081zm-0.042 0.032 0.018-0.013c-0.012 9e-3 -0.024 0.018-0.036 0.028l0.018-0.015zm-0.146 0.12 0.018-0.016 8e-3 -7e-3c-9e-3 8e-3 -0.018 0.015-0.026 0.023z"/></g></svg>
