<?xml version="1.0" encoding="UTF-8" standalone="no"?><!DOCTYPE svg PUBLIC "-//W3C//DTD SVG 1.1//EN" "http://www.w3.org/Graphics/SVG/1.1/DTD/svg11.dtd"><svg width="100%" height="100%" viewBox="0 0 534 592" version="1.1" xmlns="http://www.w3.org/2000/svg" xmlns:xlink="http://www.w3.org/1999/xlink" xml:space="preserve" xmlns:serif="http://www.serif.com/" style="fill-rule:evenodd;clip-rule:evenodd;stroke-linejoin:round;stroke-miterlimit:2;"><path d="M246.432,5.402c12.731,-7.203 28.307,-7.203 41.037,0c49.511,28.014 175.136,99.092 225.285,127.467c13.068,7.394 21.148,21.249 21.148,36.264c-0,56.629 -0,196.857 -0,253.486c-0,15.016 -8.08,28.87 -21.148,36.265c-50.149,28.374 -175.774,99.453 -225.285,127.466c-12.73,7.203 -28.306,7.203 -41.037,0c-49.51,-28.013 -175.135,-99.092 -225.284,-127.466c-13.069,-7.395 -21.148,-21.249 -21.148,-36.265c0,-56.629 0,-196.857 0,-253.486c0,-15.015 8.079,-28.87 21.148,-36.264c50.149,-28.375 175.774,-99.453 225.284,-127.467Zm49.226,475.876l0,-169.14l56.775,0l8.5,-65.918l-65.275,0l0,-42.086c0,-19.085 5.299,-32.09 32.668,-32.09l34.906,-0.016l0,-58.957c-6.038,-0.801 -26.758,-2.597 -50.863,-2.597c-50.328,0 -84.781,30.719 -84.781,87.134l0,48.612l-56.919,0l0,65.918l56.919,0l0,169.14l68.07,0Z" style="fill:#fff;"/></svg>