<?xml version="1.0" encoding="UTF-8" standalone="no"?><!DOCTYPE svg PUBLIC "-//W3C//DTD SVG 1.1//EN" "http://www.w3.org/Graphics/SVG/1.1/DTD/svg11.dtd"><svg width="100%" height="100%" viewBox="0 0 93 105" version="1.1" xmlns="http://www.w3.org/2000/svg" xmlns:xlink="http://www.w3.org/1999/xlink" xml:space="preserve" xmlns:serif="http://www.serif.com/" style="fill-rule:evenodd;clip-rule:evenodd;stroke-linejoin:round;stroke-miterlimit:2;"><path d="M41.922,2.322c2.546,-1.441 5.662,-1.441 8.208,-0c8.694,4.919 28.889,16.345 37.692,21.327c2.614,1.478 4.23,4.249 4.23,7.252c0,9.928 0,32.436 0,42.364c0,3.003 -1.616,5.774 -4.23,7.253c-8.803,4.981 -28.998,16.408 -37.692,21.327c-2.546,1.44 -5.662,1.44 -8.208,-0c-8.694,-4.919 -28.889,-16.346 -37.692,-21.327c-2.614,-1.479 -4.23,-4.25 -4.23,-7.253c-0,-9.928 -0,-32.436 -0,-42.364c-0,-3.003 1.616,-5.774 4.23,-7.252c8.803,-4.982 28.998,-16.408 37.692,-21.327Z" style="fill:#505050;"/></svg>