<?xml version="1.0" encoding="UTF-8" standalone="no"?><!DOCTYPE svg PUBLIC "-//W3C//DTD SVG 1.1//EN" "http://www.w3.org/Graphics/SVG/1.1/DTD/svg11.dtd"><svg width="100%" height="100%" viewBox="0 0 534 592" version="1.1" xmlns="http://www.w3.org/2000/svg" xmlns:xlink="http://www.w3.org/1999/xlink" xml:space="preserve" xmlns:serif="http://www.serif.com/" style="fill-rule:evenodd;clip-rule:evenodd;stroke-linejoin:round;stroke-miterlimit:2;"><path d="M246.432,5.402c12.731,-7.203 28.307,-7.203 41.037,0c49.511,28.014 175.136,99.092 225.285,127.467c13.068,7.394 21.148,21.249 21.148,36.264c-0,56.629 -0,196.857 -0,253.486c-0,15.016 -8.08,28.87 -21.148,36.265c-50.149,28.374 -175.774,99.453 -225.285,127.466c-12.73,7.203 -28.306,7.203 -41.037,0c-49.51,-28.013 -175.135,-99.092 -225.284,-127.466c-13.069,-7.395 -21.148,-21.249 -21.148,-36.265c0,-56.629 0,-196.857 0,-253.486c0,-15.015 8.079,-28.87 21.148,-36.264c50.149,-28.375 175.774,-99.453 225.284,-127.467Zm20.509,147.459l0.024,-0l-0.047,-0l0.023,0c-40.842,0 -45.971,0.17 -62.017,0.864c-16.019,0.697 -26.952,3.108 -36.519,6.644c-9.896,3.653 -18.291,8.539 -26.654,16.492c-8.37,7.949 -13.511,15.928 -17.366,25.331c-3.731,9.097 -6.27,19.492 -6.991,34.711c-0.718,15.255 -0.906,20.133 -0.906,58.973c0,38.841 0.182,43.7 0.909,58.955c0.737,15.225 3.273,25.618 6.991,34.711c3.846,9.406 8.987,17.386 17.353,25.335c8.36,7.955 16.755,12.853 26.645,16.506c9.573,3.537 20.51,5.947 36.525,6.644c16.05,0.695 21.175,0.864 62.035,0.864c40.867,0 45.979,-0.169 62.029,-0.864c16.018,-0.697 26.964,-3.107 36.538,-6.644c9.893,-3.653 18.275,-8.551 26.635,-16.506c8.369,-7.949 13.51,-15.929 17.366,-25.332c3.699,-9.096 6.238,-19.492 6.99,-34.711c0.721,-15.255 0.909,-20.117 0.909,-58.958c0,-38.84 -0.188,-43.715 -0.909,-58.97c-0.752,-15.225 -3.291,-25.617 -6.99,-34.711c-3.856,-9.406 -8.997,-17.385 -17.366,-25.334c-8.37,-7.955 -16.739,-12.842 -26.645,-16.492c-9.592,-3.536 -20.532,-5.947 -36.55,-6.644c-16.046,-0.694 -21.157,-0.864 -62.012,-0.864Zm-13.474,25.773c4.006,-0.006 8.476,-0 13.498,-0c40.174,-0 44.935,0.137 60.8,0.822c14.67,0.637 22.632,2.967 27.936,4.925c7.022,2.592 12.028,5.691 17.291,10.696c5.266,5.006 8.526,9.773 11.26,16.447c2.059,5.035 4.514,12.603 5.181,26.547c0.721,15.076 0.878,19.605 0.878,57.772c-0,38.168 -0.157,42.696 -0.878,57.773c-0.671,13.944 -3.122,21.512 -5.181,26.547c-2.727,6.674 -5.994,11.426 -11.26,16.429c-5.266,5.005 -10.266,8.104 -17.291,10.696c-5.297,1.967 -13.266,4.291 -27.936,4.928c-15.861,0.685 -20.626,0.834 -60.8,0.834c-40.177,0 -44.939,-0.149 -60.8,-0.834c-14.67,-0.643 -22.632,-2.973 -27.939,-4.931c-7.022,-2.592 -12.037,-5.691 -17.304,-10.696c-5.266,-5.006 -8.526,-9.761 -11.259,-16.438c-2.06,-5.035 -4.514,-12.603 -5.182,-26.547c-0.721,-15.076 -0.865,-19.605 -0.865,-57.796c-0,-38.191 0.144,-42.696 0.865,-57.772c0.671,-13.944 3.122,-21.512 5.182,-26.554c2.727,-6.674 5.993,-11.441 11.259,-16.446c5.267,-5.006 10.282,-8.105 17.304,-10.703c5.304,-1.966 13.269,-4.29 27.939,-4.931c13.88,-0.596 19.259,-0.774 47.302,-0.804l0,0.036Zm13.496,43.798l0.002,-0l-0.003,-0l0.001,-0c-42.67,-0 -77.268,32.885 -77.268,73.444c0,40.56 34.598,73.43 77.27,73.43c42.672,-0 77.257,-32.87 77.257,-73.43c-0,-40.559 -34.588,-73.444 -77.259,-73.444Zm0.002,25.772c27.698,0 50.155,21.343 50.155,47.672c-0,26.327 -22.457,47.672 -50.155,47.672c-27.701,-0 -50.155,-21.345 -50.155,-47.672c0,-26.329 22.454,-47.672 50.155,-47.672Zm80.316,-45.824c-9.968,0 -18.055,7.678 -18.055,17.156c-0,9.475 8.087,17.162 18.055,17.162c9.969,-0 18.056,-7.687 18.056,-17.162c0,-9.475 -8.087,-17.162 -18.056,-17.162l0,0.006Z" style="fill:#fff;"/></svg>