<?xml version="1.0" encoding="UTF-8" standalone="no"?><!DOCTYPE svg PUBLIC "-//W3C//DTD SVG 1.1//EN" "http://www.w3.org/Graphics/SVG/1.1/DTD/svg11.dtd"><svg width="100%" height="100%" viewBox="0 0 8581 3339" version="1.1" xmlns="http://www.w3.org/2000/svg" xmlns:xlink="http://www.w3.org/1999/xlink" xml:space="preserve" xmlns:serif="http://www.serif.com/" style="fill-rule:evenodd;clip-rule:evenodd;stroke-miterlimit:10;"><path d="M1921.4,1709.72c39.166,-40.833 55.833,-97.5 71.666,-152.083c32.5,-112.917 65,-225.417 97.5,-338.334c-131.666,131.667 -223.333,262.917 -354.583,375c-26.25,22.5 -54.583,45 -89.167,51.25c-40.833,7.5 -81.25,-22.083 -89.166,-63.333c-5,-26.667 -1.667,-57.917 10.833,-98.75c-113.75,146.25 -251.25,273.75 -405.833,375.833c-57.5,38.334 -158.334,92.917 -215.417,54.167c-44.167,-30 -53.75,-90.417 -55,-143.75c-4.583,-175.833 37.083,-352.917 120,-507.917c-95.417,120 -190.417,240 -287.083,358.75c-85.834,105.417 -174.584,211.667 -289.584,283.75c-59.583,37.084 -146.25,62.5 -188.333,-8.75c-8.75,-14.583 -13.333,-30.833 -15,-47.916c-13.75,-140 47.917,-274.167 126.25,-389.167c114.167,-167.083 267.083,-307.917 444.167,-406.25c75.833,-42.083 174.166,-57.083 245.833,-8.333c8.333,5.833 25,20.416 25,20.416c-0,0 26.25,-36.25 46.667,-62.5c186.25,-240.833 348.75,-499.583 535,-740.833c17.916,-22.917 56.666,-45 69.583,-18.75c-138.75,241.667 -317.083,458.333 -468.333,692.083c-151.25,233.75 -277.917,494.167 -294.584,772.5c-2.083,35.834 -1.666,73.75 16.667,104.167c21.667,35.833 69.583,45 103.75,20.833c244.583,-173.75 459.167,-390 630.833,-635.833c23.75,-33.75 59.584,-77.5 97.917,-91.667c8.333,-2.916 5.417,8.75 2.083,15c-72.916,120 -153.75,232.917 -180.833,392.917c-2.917,17.5 -5,62.917 36.25,37.083c140,-88.333 270.833,-277.083 393.333,-389.166c36.667,-33.334 108.75,-91.25 127.084,-71.25c-54.584,170.833 -109.167,342.083 -163.334,512.916c154.167,-144.166 316.667,-280 486.25,-405.833c20.834,-15.417 49.167,-31.25 70.834,-16.667c-159.167,147.917 -317.917,295.417 -477.084,443.334c-57.083,52.916 -116.666,110 -137.083,185.416c-79.167,292.084 -159.167,583.75 -257.083,870c-41.667,121.667 -86.667,243.334 -156.667,351.25c-32.917,50.834 -93.75,104.584 -147.5,65.417c-10.833,-7.917 -19.583,-18.333 -25.833,-30c-75,-135.417 -59.584,-300 -19.167,-448.333c93.75,-345.834 312.083,-646.667 559.167,-906.667m-975,-636.667c-95.834,-5 -248.75,104.167 -350.834,202.084c-153.75,147.5 -301.25,332.083 -292.083,546.25c0.417,6.666 1.667,13.333 4.583,19.583c18.334,38.333 69.167,15.833 100,-7.5c254.584,-194.583 433.334,-492.5 634.167,-726.667c0.417,-0.416 0.417,0 -0,0c-30.833,-30.833 -61.667,-30.416 -88.333,-32.916m969.166,747.083c-200,195.417 -355,436.25 -450.416,698.75c-55.417,152.083 -90,322.5 -32.5,473.333c2.916,7.5 6.666,15.834 14.583,18.75c9.583,3.334 19.167,-3.75 26.667,-10.416c66.25,-60.834 105.416,-145.417 139.166,-229.167c91.25,-224.583 159.167,-458.333 227.084,-691.25c25,-86.667 50.416,-173.333 75.416,-260Z" style="fill:#fff;fill-rule:nonzero;stroke:#fff;stroke-width:45.83px;"/><path d="M2581.82,1728.89c7.5,-22.084 39.167,-1.667 57.917,11.666c26.667,19.167 64.167,17.5 93.75,3.75c30,-13.75 53.75,-37.5 76.667,-61.25c129.166,-134.583 247.083,-287.916 295.416,-467.916c10.417,-38.334 16.667,-82.917 -6.666,-115.417c-36.667,-52.083 -116.667,-37.917 -175.417,-14.167c-113.333,45.834 -222.5,110.834 -295.417,208.75c-44.583,60 -73.75,129.584 -101.666,198.75c-130.834,324.167 -244.584,655.417 -339.584,991.667c-15.416,54.583 -31.666,112.083 -71.666,152.5c-6.667,-217.083 59.166,-430 132.5,-634.583c132.083,-366.667 290,-725 472.916,-1070.42c8.334,-15.833 27.084,-33.333 40,-21.25c-34.583,77.083 -65.416,155.833 -92.083,235.833c57.083,-50.416 115,-100.833 182.917,-135.416c67.916,-34.584 147.916,-51.25 220.833,-30c72.917,21.25 135.417,87.083 137.917,162.916c1.666,48.75 -20.417,95.417 -42.084,139.167c-86.666,173.75 -182.916,348.333 -330.416,475c-42.084,35.833 -91.25,68.75 -146.667,69.583c-55,0.417 -113.75,-44.166 -109.167,-99.166Z" style="fill:#fff;fill-rule:nonzero;stroke:#fff;stroke-width:45.83px;"/><path d="M3938.9,1441.39c-121.667,138.333 -252.917,267.916 -392.5,387.916c-53.75,46.25 -127.084,93.75 -190.834,61.667c-32.916,-16.25 -52.916,-50.833 -63.333,-85.833c-22.083,-75.834 -5.833,-157.5 13.333,-234.584c105,-425.833 280.417,-834.583 517.917,-1203.75c33.75,-52.5 74.583,-108.333 135.417,-122.5c-233.334,311.667 -381.667,678.334 -505,1047.92c-47.917,143.75 -92.917,292.083 -86.25,443.333c1.25,30 11.25,67.917 41.25,72.5c17.083,2.5 32.916,-7.083 47.083,-17.083c153.333,-105 289.167,-233.75 423.75,-361.667c35.417,-33.75 72.083,-69.583 87.917,-115.833c43.75,-128.75 117.083,-246.667 212.916,-342.917c44.584,-44.583 99.167,-86.666 162.084,-87.083c70.833,-0.417 133.333,54.583 159.166,120.417c25.834,65.833 21.25,140 7.084,209.166c-32.917,160 -116.25,309.584 -235.417,421.667c-57.917,54.583 -137.5,102.917 -213.333,77.917c-50.417,-16.667 -86.25,-63.75 -103.334,-114.167c-16.25,-50 -17.5,-104.167 -17.916,-157.083m208.333,185c179.583,-111.25 298.75,-314.167 307.917,-525.417c1.25,-31.25 -0,-64.167 -14.584,-91.667c-20.833,-40 -70.416,-62.5 -114.583,-52.5c-19.583,4.584 -37.5,14.584 -54.167,25.417c-171.25,110 -273.333,319.167 -254.583,521.667c3.333,35.416 10.833,72.5 33.75,100c23.333,27.5 65.833,41.666 96.25,22.5Z" style="fill:#fff;fill-rule:nonzero;stroke:#fff;stroke-width:45.83px;"/><path d="M5567.24,1200.97c-46.25,135 -99.583,272.917 -92.917,415.417c1.25,28.333 7.084,59.583 30.417,75.416c29.167,20 76.667,9.167 95.417,38.75c-50.417,29.584 -116.667,58.75 -163.75,23.75c-34.584,-25.833 -40.417,-74.583 -40.417,-117.916c-0,-155 38.333,-310.417 110.833,-447.5c-7.916,-25.417 -46.666,-12.5 -66.666,5c-150.417,131.25 -282.917,283.333 -392.917,450c-18.75,28.333 -66.667,19.583 -86.25,-8.75c-19.583,-27.917 -18.75,-65 -15.833,-98.75c13.75,-173.334 53.75,-344.167 118.75,-505.417c-66.25,39.167 -115.834,101.25 -162.5,162.917c-128.334,169.583 -246.667,346.25 -365,522.916c-18.334,27.084 -65.417,12.5 -78.334,-17.5c-12.916,-30 -2.916,-64.583 7.5,-95.416c92.917,-276.667 208.334,-546.25 344.584,-804.167c6.25,-11.667 21.666,-24.167 29.583,-13.75c-100.833,257.083 -201.667,514.583 -276.667,780.417c48.75,-68.75 97.5,-137.917 146.25,-206.667c82.084,-116.25 164.167,-232.5 259.167,-338.333c26.25,-29.584 57.083,-60 96.25,-65c39.167,-5 84.167,31.25 72.083,68.75c-57.5,176.666 -97.5,359.166 -119.166,543.75c37.916,-49.167 75.833,-98.334 114.166,-147.917c84.584,-110 172.084,-222.083 290,-295c25.834,-15.833 53.75,-30 83.75,-30c30,-0 62.084,17.5 69.584,46.667c5,19.166 -1.25,39.583 -7.917,58.333Z" style="fill:#fff;fill-rule:nonzero;stroke:#fff;stroke-width:45.83px;"/><path d="M7262.65,1188.05c17.5,-24.583 60,-10.833 73.333,16.25c13.333,27.084 7.083,59.167 2.917,88.75c-10.834,75.834 -7.5,153.75 9.166,228.334c7.5,33.75 18.75,68.75 42.917,93.75c60.417,63.333 164.583,39.166 246.25,7.083c165.417,-64.583 325.833,-142.083 479.583,-230.833c73.75,-42.5 149.167,-89.167 233.75,-95.834c-202.083,174.584 -434.583,313.334 -683.75,408.75c-87.5,33.334 -189.166,60.834 -271.25,15.417c-80,-43.75 -112.916,-142.083 -122.5,-232.5c-7.916,-72.917 -5.416,-146.667 7.084,-218.75c-113.334,143.333 -230,290 -386.25,385c-39.584,24.167 -89.584,45 -130.834,23.75c-40.833,-20.833 -53.75,-72.5 -55.416,-117.917c-2.5,-70.416 11.666,-141.25 41.25,-205c-152.917,130 -306.25,260.834 -476.25,367.5c-93.334,58.334 -196.667,110.834 -307.084,109.584c-64.583,-0.834 -143.333,-42.084 -133.333,-105.834c3.333,-22.083 17.083,-40.416 30.417,-58.333c137.083,-182.083 274.166,-364.583 410.833,-546.667c-166.25,137.084 -313.75,297.084 -437.917,473.334c-21.25,30.416 -67.916,27.916 -84.583,-5.417c-13.75,-27.5 -8.333,-60.417 -2.5,-90.833c17.917,-92.5 35.833,-184.584 53.75,-277.084c-20.833,33.75 -52.917,60.417 -89.583,74.584c47.5,-57.084 134.583,-201.25 134.583,-201.25c-0,-0 22.083,-88.75 34.167,-141.667c42.5,-190.833 122.083,-372.917 232.5,-534.167c29.583,-42.916 62.916,-85.833 110.416,-107.5c47.5,-21.666 111.667,-13.333 139.584,30.417c23.75,37.917 14.166,87.083 0.416,129.583c-55,174.584 -166.666,323.75 -289.583,459.167c-113.333,125 -117.917,121.25 -117.917,121.25c0,-0 -72.916,252.083 -93.75,392.5c112.084,-153.75 242.917,-293.75 389.167,-415.833c29.167,-24.584 62.917,-49.584 101.25,-47.084c43.75,2.5 67.5,52.917 42.5,88.75c-155.833,221.25 -359.167,452.917 -493.75,644.584c-10.417,14.583 1.667,25.416 8.333,27.916c112.917,37.917 215.834,-33.75 308.75,-94.166c153.334,-100 306.667,-200 460.417,-299.584c55.833,-36.25 113.333,-74.166 152.5,-127.916c90.833,-124.584 206.25,-251.25 359.583,-267.084c46.667,-5 96.25,2.084 133.75,30c37.5,27.917 58.75,80.417 41.25,123.75c-10.416,-58.75 -73.333,-97.083 -132.916,-97.5c-59.584,-0.416 -115.417,29.167 -163.75,63.75c-143.334,102.5 -247.5,258.75 -286.25,430.417c-5.417,23.333 -9.167,49.167 1.666,70.833c11.667,22.5 40.417,29.584 61.667,15.417c160,-107.5 302.083,-244.167 415.417,-401.667m-1002.5,-800c-40.834,25.834 -70,65 -96.667,104.584c-73.75,110.416 -115.417,172.5 -152.5,308.333c-22.5,82.083 -31.667,96.667 -47.083,183.333c12.083,-12.083 40.416,-40 49.166,-51.25c125,-158.75 240,-300.833 289.167,-497.083c5,-19.167 6.667,-44.583 -14.583,-52.083c-9.167,-2.917 -19.167,-0.834 -27.5,4.166Z" style="fill:#fff;fill-rule:nonzero;stroke:#fff;stroke-width:45.83px;"/><path d="M2396.4,783.886l49.166,-264.167l12.917,-72.5c-0,-0.417 -0.417,-0.417 -0.833,-0c-13.75,41.667 -42.917,133.333 -49.584,159.583c-17.916,73.75 -288.75,1160 -288.75,1160c0,0 -552.083,6.25 -595,27.917c-45.833,23.333 -18.75,24.167 22.5,24.167c42.5,-0 557.084,14.583 557.084,14.583c-0,-0 -59.167,307.5 -66.25,451.25c-2.5,46.25 1.25,71.667 24.583,38.75c18.333,-25.417 106.25,-492.5 106.25,-492.5c-0,-0 125.417,-9.583 162.5,-15.833c107.917,-17.5 112.5,-19.167 15,-30c-11.25,-1.25 -150.417,-15.834 -150.417,-15.834l200.834,-985.416Z" style="fill:#e7290b;fill-rule:nonzero;stroke:#e7290f;stroke-width:70.83px;"/></svg>