<?xml version="1.0" encoding="utf-8"?>
<!-- Generator: Adobe Adobe Illustrator 24.2.0, SVG Export Plug-In . SVG Version: 6.00 Build 0)  -->
<svg version="1.1" id="Contours" xmlns="http://www.w3.org/2000/svg" xmlns:xlink="http://www.w3.org/1999/xlink" x="0px" y="0px"
	 viewBox="0 0 2110 760" style="enable-background:new 0 0 2110 760;" xml:space="preserve">
<style type="text/css">
	.st0{fill:#E7290B;}
	.st1{fill:#FFFFFF;stroke:#52AEFF;stroke-width:7;stroke-miterlimit:10;}
	.st2{stroke:#000000;stroke-width:11;stroke-miterlimit:10;}
	.st3{fill:#E7290B;stroke:#E7290F;stroke-width:17;stroke-miterlimit:10;}
</style>
<g>
	<g>
		<path class="st2" d="M486.5,389.7c9.4-9.8,13.4-23.4,17.2-36.5c7.8-27.1,15.6-54.1,23.4-81.2c-31.6,31.6-53.6,63.1-85.1,90
			c-6.3,5.4-13.1,10.8-21.4,12.3c-9.8,1.8-19.5-5.3-21.4-15.2c-1.2-6.4-0.4-13.9,2.6-23.7c-27.3,35.1-60.3,65.7-97.4,90.2
			c-13.8,9.2-38,22.3-51.7,13c-10.6-7.2-12.9-21.7-13.2-34.5c-1.1-42.2,8.9-84.7,28.8-121.9c-22.9,28.8-45.7,57.6-68.9,86.1
			c-20.6,25.3-41.9,50.8-69.5,68.1c-14.3,8.9-35.1,15-45.2-2.1c-2.1-3.5-3.2-7.4-3.6-11.5c-3.3-33.6,11.5-65.8,30.3-93.4
			c27.4-40.1,64.1-73.9,106.6-97.5c18.2-10.1,41.8-13.7,59-2c2,1.4,6,4.9,6,4.9s6.3-8.7,11.2-15C338.9,162,377.9,99.9,422.6,42
			c4.3-5.5,13.6-10.8,16.7-4.5c-33.3,58-76.1,110-112.4,166.1s-66.7,118.6-70.7,185.4c-0.5,8.6-0.4,17.7,4,25
			c5.2,8.6,16.7,10.8,24.9,5c58.7-41.7,110.2-93.6,151.4-152.6c5.7-8.1,14.3-18.6,23.5-22c2-0.7,1.3,2.1,0.5,3.6
			c-17.5,28.8-36.9,55.9-43.4,94.3c-0.7,4.2-1.2,15.1,8.7,8.9c33.6-21.2,65-66.5,94.4-93.4c8.8-8,26.1-21.9,30.5-17.1
			c-13.1,41-26.2,82.1-39.2,123.1c37-34.6,76-67.2,116.7-97.4c5-3.7,11.8-7.5,17-4c-38.2,35.5-76.3,70.9-114.5,106.4
			c-13.7,12.7-28,26.4-32.9,44.5c-19,70.1-38.2,140.1-61.7,208.8c-10,29.2-20.8,58.4-37.6,84.3c-7.9,12.2-22.5,25.1-35.4,15.7
			c-2.6-1.9-4.7-4.4-6.2-7.2c-18-32.5-14.3-72-4.6-107.6C374.8,524.3,427.2,452.1,486.5,389.7 M252.5,236.9
			c-23-1.2-59.7,25-84.2,48.5c-36.9,35.4-72.3,79.7-70.1,131.1c0.1,1.6,0.4,3.2,1.1,4.7c4.4,9.2,16.6,3.8,24-1.8
			c61.1-46.7,104-118.2,152.2-174.4c0.1-0.1,0.1,0,0,0c-7.4-7.4-14.8-7.3-21.2-7.9 M486.9,416.4c-48,46.9-85.2,104.7-108.1,167.7
			c-13.3,36.5-21.6,77.4-7.8,113.6c0.7,1.8,1.6,3.8,3.5,4.5c2.3,0.8,4.6-0.9,6.4-2.5c15.9-14.6,25.3-34.9,33.4-55
			c21.9-53.9,38.2-110,54.5-165.9C474.8,458,480.9,437.2,486.9,416.4z"/>
		<g>
			<path class="st2" d="M645,394.3c1.8-5.3,9.4-0.4,13.9,2.8c6.4,4.6,15.4,4.2,22.5,0.9c7.2-3.3,12.9-9,18.4-14.7
				c31-32.3,59.3-69.1,70.9-112.3c2.5-9.2,4-19.9-1.6-27.7c-8.8-12.5-28-9.1-42.1-3.4c-27.2,11-53.4,26.6-70.9,50.1
				c-10.7,14.4-17.7,31.1-24.4,47.7c-31.4,77.8-58.7,157.3-81.5,238c-3.7,13.1-7.6,26.9-17.2,36.6c-1.6-52.1,14.2-103.2,31.8-152.3
				C596.5,372,634.4,286,678.3,203.1c2-3.8,6.5-8,9.6-5.1c-8.3,18.5-15.7,37.4-22.1,56.6c13.7-12.1,27.6-24.2,43.9-32.5
				s35.5-12.3,53-7.2c17.5,5.1,32.5,20.9,33.1,39.1c0.4,11.7-4.9,22.9-10.1,33.4c-20.8,41.7-43.9,83.6-79.3,114
				c-10.1,8.6-21.9,16.5-35.2,16.7C658,418.2,643.9,407.5,645,394.3z"/>
			<g>
				<path class="st2" d="M970.7,325.3c-29.2,33.2-60.7,64.3-94.2,93.1c-12.9,11.1-30.5,22.5-45.8,14.8c-7.9-3.9-12.7-12.2-15.2-20.6
					c-5.3-18.2-1.4-37.8,3.2-56.3C843.9,254.1,886,156,943,67.4c8.1-12.6,17.9-26,32.5-29.4c-56,74.8-91.6,162.8-121.2,251.5
					c-11.5,34.5-22.3,70.1-20.7,106.4c0.3,7.2,2.7,16.3,9.9,17.4c4.1,0.6,7.9-1.7,11.3-4.1c36.8-25.2,69.4-56.1,101.7-86.8
					c8.5-8.1,17.3-16.7,21.1-27.8c10.5-30.9,28.1-59.2,51.1-82.3c10.7-10.7,23.8-20.8,38.9-20.9c17-0.1,32,13.1,38.2,28.9
					c6.2,15.8,5.1,33.6,1.7,50.2c-7.9,38.4-27.9,74.3-56.5,101.2c-13.9,13.1-33,24.7-51.2,18.7c-12.1-4-20.7-15.3-24.8-27.4
					C971.1,351,970.8,338,970.7,325.3 M1020.7,369.7c43.1-26.7,71.7-75.4,73.9-126.1c0.3-7.5,0-15.4-3.5-22
					c-5-9.6-16.9-15-27.5-12.6c-4.7,1.1-9,3.5-13,6.1c-41.1,26.4-65.6,76.6-61.1,125.2c0.8,8.5,2.6,17.4,8.1,24
					C1003.2,370.9,1013.4,374.3,1020.7,369.7z"/>
				<path class="st2" d="M1361.5,267.6c-11.1,32.4-23.9,65.5-22.3,99.7c0.3,6.8,1.7,14.3,7.3,18.1c7,4.8,18.4,2.2,22.9,9.3
					c-12.1,7.1-28,14.1-39.3,5.7c-8.3-6.2-9.7-17.9-9.7-28.3c0-37.2,9.2-74.5,26.6-107.4c-1.9-6.1-11.2-3-16,1.2
					c-36.1,31.5-67.9,68-94.3,108c-4.5,6.8-16,4.7-20.7-2.1c-4.7-6.7-4.5-15.6-3.8-23.7c3.3-41.6,12.9-82.6,28.5-121.3
					c-15.9,9.4-27.8,24.3-39,39.1c-30.8,40.7-59.2,83.1-87.6,125.5c-4.4,6.5-15.7,3-18.8-4.2c-3.1-7.2-0.7-15.5,1.8-22.9
					c22.3-66.4,50-131.1,82.7-193c1.5-2.8,5.2-5.8,7.1-3.3c-24.2,61.7-48.4,123.5-66.4,187.3c11.7-16.5,23.4-33.1,35.1-49.6
					c19.7-27.9,39.4-55.8,62.2-81.2c6.3-7.1,13.7-14.4,23.1-15.6s20.2,7.5,17.3,16.5c-13.8,42.4-23.4,86.2-28.6,130.5
					c9.1-11.8,18.2-23.6,27.4-35.5c20.3-26.4,41.3-53.3,69.6-70.8c6.2-3.8,12.9-7.2,20.1-7.2c7.2,0,14.9,4.2,16.7,11.2
					C1364.6,258.2,1363.1,263.1,1361.5,267.6z"/>
				<path class="st2" d="M1768.4,264.5c4.2-5.9,14.4-2.6,17.6,3.9c3.2,6.5,1.7,14.2,0.7,21.3c-2.6,18.2-1.8,36.9,2.2,54.8
					c1.8,8.1,4.5,16.5,10.3,22.5c14.5,15.2,39.5,9.4,59.1,1.7c39.7-15.5,78.2-34.1,115.1-55.4c17.7-10.2,35.8-21.4,56.1-23
					c-48.5,41.9-104.3,75.2-164.1,98.1c-21,8-45.4,14.6-65.1,3.7c-19.2-10.5-27.1-34.1-29.4-55.8c-1.9-17.5-1.3-35.2,1.7-52.5
					c-27.2,34.4-55.2,69.6-92.7,92.4c-9.5,5.8-21.5,10.8-31.4,5.7c-9.8-5-12.9-17.4-13.3-28.3c-0.6-16.9,2.8-33.9,9.9-49.2
					c-36.7,31.2-73.5,62.6-114.3,88.2c-22.4,14-47.2,26.6-73.7,26.3c-15.5-0.2-34.4-10.1-32-25.4c0.8-5.3,4.1-9.7,7.3-14
					c32.9-43.7,65.8-87.5,98.6-131.2c-39.9,32.9-75.3,71.3-105.1,113.6c-5.1,7.3-16.3,6.7-20.3-1.3c-3.3-6.6-2-14.5-0.6-21.8
					c4.3-22.2,8.6-44.3,12.9-66.5c-5,8.1-12.7,14.5-21.5,17.9c11.4-13.7,32.3-48.3,32.3-48.3s5.3-21.3,8.2-34
					c10.2-45.8,29.3-89.5,55.8-128.2c7.1-10.3,15.1-20.6,26.5-25.8s26.8-3.2,33.5,7.3c5.7,9.1,3.4,20.9,0.1,31.1
					c-13.2,41.9-40,77.7-69.5,110.2c-27.2,30-28.3,29.1-28.3,29.1s-17.5,60.5-22.5,94.2c26.9-36.9,58.3-70.5,93.4-99.8
					c7-5.9,15.1-11.9,24.3-11.3c10.5,0.6,16.2,12.7,10.2,21.3c-37.4,53.1-86.2,108.7-118.5,154.7c-2.5,3.5,0.4,6.1,2,6.7
					c27.1,9.1,51.8-8.1,74.1-22.6c36.8-24,73.6-48,110.5-71.9c13.4-8.7,27.2-17.8,36.6-30.7c21.8-29.9,49.5-60.3,86.3-64.1
					c11.2-1.2,23.1,0.5,32.1,7.2c9,6.7,14.1,19.3,9.9,29.7c-2.5-14.1-17.6-23.3-31.9-23.4c-14.3-0.1-27.7,7-39.3,15.3
					c-34.4,24.6-59.4,62.1-68.7,103.3c-1.3,5.6-2.2,11.8,0.4,17c2.8,5.4,9.7,7.1,14.8,3.7C1707.1,335.1,1741.2,302.3,1768.4,264.5
					 M1527.8,72.5c-9.8,6.2-16.8,15.6-23.2,25.1c-17.7,26.5-27.7,41.4-36.6,74c-5.4,19.7-7.6,23.2-11.3,44
					c2.9-2.9,9.7-9.6,11.8-12.3c30-38.1,57.6-72.2,69.4-119.3c1.2-4.6,1.6-10.7-3.5-12.5C1532.2,70.8,1529.8,71.3,1527.8,72.5z"/>
			</g>
		</g>
	</g>
	<path class="st3" d="M600.5,167.5l11.8-63.4l3.1-17.4c0-0.1-0.1-0.1-0.2,0c-3.3,10-10.3,32-11.9,38.3
		c-4.3,17.7-69.3,278.4-69.3,278.4s-132.5,1.5-142.8,6.7c-11,5.6-4.5,5.8,5.4,5.8c10.2,0,133.7,3.5,133.7,3.5s-14.2,73.8-15.9,108.3
		c-0.6,11.1,0.3,17.2,5.9,9.3c4.4-6.1,25.5-118.2,25.5-118.2s30.1-2.3,39-3.8c25.9-4.2,27-4.6,3.6-7.2c-2.7-0.3-36.1-3.8-36.1-3.8
		L600.5,167.5z"/>
</g>
</svg>
