<?xml version="1.0" encoding="UTF-8" standalone="no"?><!DOCTYPE svg PUBLIC "-//W3C//DTD SVG 1.1//EN" "http://www.w3.org/Graphics/SVG/1.1/DTD/svg11.dtd"><svg width="100%" height="100%" viewBox="0 0 166 77" version="1.1" xmlns="http://www.w3.org/2000/svg" xmlns:xlink="http://www.w3.org/1999/xlink" xml:space="preserve" xmlns:serif="http://www.serif.com/" style="fill-rule:evenodd;clip-rule:evenodd;stroke-linejoin:round;stroke-miterlimit:2;"><path d="M76.63,73.618c-2.537,-3.124 -2.06,-7.72 1.064,-10.257l76.006,-61.731c3.124,-2.537 7.72,-2.06 10.257,1.064c2.538,3.123 2.061,7.719 -1.063,10.257l-76.007,61.73c-3.123,2.537 -7.719,2.061 -10.257,-1.063Z" style="fill:#fff;fill-opacity:0.65;"/><path d="M88.957,73.618c2.538,-3.124 2.061,-7.72 -1.063,-10.257l-76.007,-61.731c-3.123,-2.537 -7.719,-2.06 -10.257,1.064c-2.537,3.123 -2.06,7.719 1.064,10.257l76.006,61.73c3.124,2.537 7.72,2.061 10.257,-1.063Z" style="fill:#fff;fill-opacity:0.65;"/></svg>