<?xml version="1.0" encoding="UTF-8" standalone="no"?><!DOCTYPE svg PUBLIC "-//W3C//DTD SVG 1.1//EN" "http://www.w3.org/Graphics/SVG/1.1/DTD/svg11.dtd"><svg width="100%" height="100%" viewBox="0 0 217 355" version="1.1" xmlns="http://www.w3.org/2000/svg" xmlns:xlink="http://www.w3.org/1999/xlink" xml:space="preserve" xmlns:serif="http://www.serif.com/" style="fill-rule:evenodd;clip-rule:evenodd;stroke-linejoin:round;stroke-miterlimit:2;"><path d="M125,81.25c0,-9.199 -7.468,-16.667 -16.667,-16.667c-9.198,0 -16.666,7.468 -16.666,16.667l-0,33.333c-0,9.199 7.468,16.667 16.666,16.667c9.199,-0 16.667,-7.468 16.667,-16.667l0,-33.333Z" style="fill:#fff;fill-opacity:0.65;"/><path d="M216.667,106.167c-0,-58.595 -47.572,-106.167 -106.167,-106.167l-4.333,0c-58.595,0 -106.167,47.572 -106.167,106.167l0,141.833c0,58.595 47.572,106.167 106.167,106.167l4.333,-0c58.595,-0 106.167,-47.572 106.167,-106.167l-0,-141.833Zm-8.922,3.661c0,-54.866 -44.545,-99.411 -99.412,-99.411c-54.867,-0 -99.411,44.545 -99.411,99.411l-0,134.51c-0,54.867 44.544,99.412 99.411,99.412c54.867,-0 99.412,-44.545 99.412,-99.412l0,-134.51Z" style="fill:#fff;fill-opacity:0.65;"/></svg>