<?xml version="1.0" encoding="UTF-8" standalone="no"?><!DOCTYPE svg PUBLIC "-//W3C//DTD SVG 1.1//EN" "http://www.w3.org/Graphics/SVG/1.1/DTD/svg11.dtd"><svg width="100%" height="100%" viewBox="0 0 72 51" version="1.1" xmlns="http://www.w3.org/2000/svg" xmlns:xlink="http://www.w3.org/1999/xlink" xml:space="preserve" xmlns:serif="http://www.serif.com/" style="fill-rule:evenodd;clip-rule:evenodd;stroke-linejoin:round;stroke-miterlimit:2;"><g><path d="M32.8,45.151c1.279,-1.198 1.281,-3.143 0.005,-4.339l-22.579,-21.158c-1.276,-1.197 -3.351,-1.194 -4.63,0.004l-4.635,4.344c-1.279,1.198 -1.282,3.143 -0.005,4.339l22.579,21.158c1.276,1.197 3.351,1.195 4.63,-0.004l4.635,-4.344Z" style="fill:#fff;"/><path d="M65.544,0.959c-1.362,-1.277 -3.572,-1.279 -4.931,-0.005l-41.515,38.904c-1.359,1.273 -1.357,3.344 0.005,4.62l4.936,4.626c1.362,1.276 3.572,1.279 4.931,0.005l41.515,-38.904c1.359,-1.274 1.357,-3.344 -0.005,-4.621l-4.936,-4.625Z" style="fill:#fff;"/></g></svg>