<svg xmlns="http://www.w3.org/2000/svg" viewBox="0 0 343 386" fill-rule="evenodd" stroke-linejoin="round" stroke-miterlimit="2" xmlns:v="https://vecta.io/nano"><path d="M183.33 6.919a25 25 0 0 0-24.551 0L12.724 89.244A25 25 0 0 0 0 111.022v163.619a25 25 0 0 0 12.724 21.778l146.055 82.325a25 25 0 0 0 24.551 0l146.055-82.325a25 25 0 0 0 12.724-21.778V111.022a25 25 0 0 0-12.724-21.778L183.33 6.919z" fill="#fff"/><path d="M179.272 20.404a16.67 16.67 0 0 0-16.434 0L23.255 99.502c-5.223 2.959-8.45 8.498-8.45 14.5v157.659c0 6.002 3.227 11.541 8.45 14.5l139.583 79.098a16.67 16.67 0 0 0 16.434 0l139.583-79.098c5.222-2.959 8.45-8.498 8.45-14.5V114.002c0-6.002-3.228-11.541-8.45-14.5L179.272 20.404z" fill="#e72a0b"/><g fill="#fff" fill-rule="nonzero"><path d="M113.408 199.335c.494-3.112 2.734-5.614 4.877-7.923l5.007-5.396c.639-.69 1.354-1.42 2.287-1.543s2.005.759 1.671 1.638a20.21 20.21 0 0 1-5.552 7.995c-.89.777-1.852 1.485-2.604 2.397-1.245 1.51-1.808 3.449-2.629 5.225s-2.091 3.551-3.986 4.038c-3.628.936-4.252 7.131-7.996 7.316-1.235.062-2.19 1.14-2.694 2.27s-.712 2.382-1.293 3.471-1.718 2.044-2.941 1.848-1.928-2.062-.886-2.73c1.834-1.177 1.017-4.158 2.251-5.952.864-1.26 2.513-1.634 3.951-2.149s2.988-1.583 2.93-3.112c-.069-1.866 1.874-3.105 3.587-3.845s3.726-1.7 4.02-3.548zm137.988 18.9c-4.016 9.829-2.774 21.038-5.693 31.245-1.057 3.697-2.953 7.542-6.475 9.081-1.605.701-3.87 1.453-3.663 3.192.148 1.242-2.012 1.394-2.698.352s-.498-2.418-.777-3.638c-.247-1.071-.857-2.019-1.329-3.01-2.128-4.466-1.435-9.706-.694-14.601l3.061-20.188c.312-2.056.617-4.191.029-6.184-.784-2.654.033-5.49.846-8.137l2.48-8.058c1.09-3.54 2.27-7.236 4.913-9.836s7.23-3.62 10.04-1.209c2.364 2.029 2.854 5.82 5.537 7.403 2.738 1.616 2.364 5.628 1.634 8.722l-3.093 13.076c-.273 1.151-.625 2.418-1.627 3.042-1.009.632-2.741-.094-2.491-1.252m-5.592-27.858c-2.244 2.193-3.99 4.891-5.076 7.836-.625 1.699-1.031 3.468-1.434 5.229l-2.357 10.305c-.25 1.093.44 2.229 1.38 2.846s2.077.832 3.181 1.032l3.696.668c1.231.221 2.989.083 3.112-1.166.617-6.242 1.58-12.447 2.872-18.584.683-3.238-.995-6.83-3.918-8.384-.247-.13-.523-.25-.795-.203-.265.047-.472.236-.661.421m-9.549 55.792l4.081.04c.526.003 1.104-.011 1.496-.364.33-.301.439-.769.523-1.209a120.53 120.53 0 0 0 1.768-12.309c.298-3.279 1.115-6.511 2.407-9.535.157-.367-.141-.799-.515-.937s-.788-.076-1.184-.022c-2.589.345-5.417-.011-7.422-1.681-.475-.396-1.02.418-1.111 1.031l-1.049 7.048-.578 3.947a277.4 277.4 0 0 0-1.274 10.392c-.116 1.1-.145 2.4.715 3.097.581.465 1.395.494 2.143.502m-2.709 5.581c.109 1.655 1.645 3.09 3.304 3.082 2.473-1.002 4.245-3.54 4.332-6.209-1.365.621-2.938.77-4.394.407-.686-.171-1.35-.45-2.055-.487s-1.496.247-1.779.894c.708.435.537 1.477.592 2.313m21.43-46.87l.77-4.412c.211-1.198.316-2.669-.664-3.388-.57 3.337-1.064 6.685-1.478 10.047.897-.239 1.213-1.332 1.372-2.247zm-76.837 54.183c-.842.098-1.499-.872-1.405-1.714s.686-1.54 1.278-2.154 1.231-1.234 1.467-2.051c.258-.886-.004-1.845.16-2.752.17-.937.77-1.729 1.354-2.477l5.766-7.418c.545-.701 1.115-1.424 1.91-1.823s1.878-.367 2.448.312c.809.963.156 2.408-.512 3.475l-5.846 9.303-1.562 2.487c-.624.995-1.256 1.997-2.073 2.84-.839.86-1.863 1.539-2.985 1.972zm-58.896-34.347c-1.231 2.379-3.82 3.671-6.242 4.815-.922.436-1.753-1.028-1.3-1.939s1.489-1.347 2.324-1.935c1.456-1.024 2.397-2.604 3.363-4.1 2.095-3.242 4.491-6.278 6.884-9.31l1.765-2.237c.516-.653 1.06-1.329 1.819-1.67s1.79-.229 2.237.476c.541.857-.044 1.957-.621 2.788-1.874 2.695-3.809 5.345-5.748 7.992-.498.679-1.002 1.366-1.652 1.896-.628.512-1.387.871-1.896 1.499-.417.505-.631 1.144-.933 1.725zm51.656 44.691c-.922 1.464-2.941 2.125-4.55 1.486-.396-.157-.788-.411-.948-.807-.526-1.296 1.685-2.109 1.958-3.482.261-1.318 2.2-1.764 3.213-.882s1.042 2.549.327 3.685zm-55.821-57.708l-2.175 4.027c-.49.904-.998 1.833-1.793 2.487s-1.954.977-2.873.512c-.733-.37-1.056-1.623-.297-1.935 1.158-.476 1.198-2.048 1.517-3.257.4-1.518 1.555-2.818 3.014-3.392.618-.243 1.329-.356 1.928-.076s.995 1.049.679 1.634zm43.74-38.232c1.533-.544 3.363 1.017 3.069 2.615s-2.56 2.403-3.799 1.35-.802-3.42.73-3.965z"/><path d="M143.575 222.4l-13.184-1.624c-2.727 5.908-7.88 10.654-13.995 12.887l6.369-7.643c1.594-1.914 3.196-3.835 4.521-5.944 4.706-7.469 5.625-17.197 2.4-25.414l-8.831 11.151c-1.027 1.296-3.318 2.483-3.961.962a49.89 49.89 0 0 1 13.457-16.162l.17-21.042a1251.03 1251.03 0 0 0-28.013 31.943c-5.614 6.623-11.271 13.507-14.096 21.717 16.354 7.978 32.051 17.299 46.877 27.847 13.602 9.673 26.888 20.897 33.983 36.002l14.328-18.798c.719-.944 1.518-1.943 2.658-2.277s2.647.425 2.582 1.609c-5.857 9.284-12.952 17.788-21.035 25.217-18.329-30.446-51.056-48.718-82.316-65.624-2.084-1.126-2.847-3.867-2.386-6.191s1.881-4.324 3.286-6.234a330.91 330.91 0 0 1 41.979-46.914c2.32-2.142 2.582-5.657 2.683-8.812l.636-19.303-37.36-13.268c1.826-2.357 4.698-3.609 7.447-4.764l61.801-26.02c4.866-2.048 10.425-4.104 15.25-1.961 24.35 10.828 49.408 20.069 74.96 27.643 1.751.519.044 3.105-1.641 3.802l-26.209 10.817c-1.576.65-1.845 2.73-1.874 4.433l-1.18 68.156c-.036 2.175-.091 4.422-.995 6.401s-2.894 3.635-5.061 3.442c-5.461-.486-10.127 6.17-7.807 11.137 5.087 2.756 7.807 8.558 8.856 14.248 1.351 7.302.501 14.815-.523 22.172-.777 5.591-3.01 12.527-8.635 13.017-3.711.323-7.051-2.756-8.228-6.289s-.671-7.389.008-11.053c-1.387 1.238-.963 3.439-.97 5.298s-1.528 4.194-3.199 3.373c-1.042-.508-1.223-1.892-1.267-3.05-.432-11.224-.723-23.083 4.67-32.938 2.131-3.892 5.21-7.897 4.346-12.251l-28.282 11.267c-3.722 1.482-6.424-6.43-10.098-4.84L150.801 248.3c-1.638 2.175-4.808 4.499-6.667 2.505 3.45-.856 3.029-6.013 5.164-8.856.864-1.151 2.149-1.888 3.286-2.767 4.099-3.162 6.281-8.148 8.271-12.923l-3.398-1.434-10.915 14.938c-1.856 2.538-4.379 5.374-7.484 4.888a90.51 90.51 0 0 1 14.76-20.552c-2.654-.748-5.366-1.285-8.104-1.609-.534 4.917-3.33 9.539-7.433 12.299.004 1.848-.207 3.82-1.347 5.276s-3.493 2.084-4.877.857-.363-4.18 1.456-3.849c1.95-5.672 5.465-10.806 10.062-14.673m27.44-52.724c-1.986 1.845-4.869 2.299-7.574 2.488a62.81 62.81 0 0 1-26.965-4.074c-.443 1.888 2.063 2.955 3.973 3.289 4.782.836 9.499 2.027 14.103 3.566-5.244 2.614-11.507.821-17.07-1.009-1.107-.363-1.703 1.274-1.703 2.44v39.099c0 .824.265 1.932 1.089 1.917 12.956-.199 25.952 3.446 36.91 10.356.919.581 2.117.2 3.127-.192l26.278-10.175c.621-.239 1.274-.504 1.677-1.031.418-.548.49-1.274.549-1.957 1.939-23.239 2.57-46.587 1.899-69.894-9.216 3.173-18.363 6.55-27.433 10.119-2.295.904-4.877.251-7.244-.439-12.317-3.595-24.397-7.999-36.133-13.184l-.207 20.105c-.007.828 0 1.721.479 2.4.371.526.97.842 1.551 1.115 6.071 2.854 12.919 3.446 19.604 3.99l13.09 1.071m17.197-49.865c.319.628.915 1.057 1.492 1.46l20.973 14.687c.472.331.977.672 1.551.705.457.025.9-.149 1.329-.32l31.398-12.687c-22.876-7.454-45.872-14.963-67.222-26.06-1.78-.926-3.937-.378-5.85.221-15.719 4.95-30.472 12.491-45.632 18.958-7.756 3.308-15.628 6.34-23.598 9.085a1225.75 1225.75 0 0 1 73.718 24.623c1.438.53 3.021-.055 4.441-.636l25.109-10.272c-4.783-5.015-10.694-8.78-16.54-12.495-3.272-2.077-7.146-4.241-10.817-3.003-6.681 2.255-14.691-.348-18.773-6.096 2.263-3.283 6.17-5.164 10.12-5.715s7.97.087 11.856.98c2.487.574 5.363 1.652 5.958 4.132.193.813.113 1.696.487 2.433m22.436 95.218c3.693.693 7.596-2.593 7.538-6.351a728.78 728.78 0 0 1 2.27-69.379c-1.798.258-3.646.53-5.229 1.42s-2.872 2.549-2.785 4.364a468.21 468.21 0 0 1-1.794 69.946m-5.2 41.063c-.021-.984-.003-2.077.665-2.799s2.208-.549 2.302.428l1.449 15.196c.098 1.035.171 2.175-.436 3.021.12.803.959 1.845 1.467 1.209.124-.156.149-.366.171-.566l1.165-11.605c.294-2.941.592-5.89.596-8.845.011-5.748-1.097-11.5-3.235-16.837-.367-.912-1.388-1.983-2.117-1.322-.186.167-.276.41-.36.646-.897 2.604-1.115 5.381-1.325 8.123l-1.013 13.195c-1.326 5.494 1.43 11.493-.432 16.827-.171.486.646.813 1.034.472s.407-.926.396-1.442l-.327-15.701m-25.257-136.445c.385-.297.719-.693 1.187-.827.454-.127.933.021 1.405.036s1.035-.2 1.104-.665c-4.815-1.793-10.105-2.294-15.174-1.441-.766.131-1.561.305-2.164.799s-.933 1.398-.545 2.073c.334.581 1.053.803 1.707.944 3.351.723 6.855.719 10.203-.011.806-.178 1.627-.406 2.277-.908z"/></g></svg>