<svg xmlns="http://www.w3.org/2000/svg" viewBox="0 0 343 386" fill-rule="evenodd" stroke-linejoin="round" stroke-miterlimit="2" xmlns:v="https://vecta.io/nano"><path d="M183.33 6.919a25 25 0 0 0-24.551 0L12.724 89.244A25 25 0 0 0 0 111.022v163.619a25 25 0 0 0 12.724 21.778l146.055 82.325a25 25 0 0 0 24.551 0l146.055-82.325a25 25 0 0 0 12.724-21.778V111.022a25 25 0 0 0-12.724-21.778L183.33 6.919z" fill="#fff"/><path d="M179.272 20.404a16.67 16.67 0 0 0-16.434 0L23.255 99.502c-5.223 2.959-8.45 8.498-8.45 14.5v157.659c0 6.002 3.227 11.541 8.45 14.5l139.583 79.098a16.67 16.67 0 0 0 16.434 0l139.583-79.098c5.222-2.959 8.45-8.498 8.45-14.5V114.002c0-6.002-3.228-11.541-8.45-14.5L179.272 20.404z" fill="#e72a0b"/><g fill="#fff" fill-rule="nonzero"><path d="M215.797 217.216c4.261-5.077 6.324-11.652 7.464-18.183 2.503-14.319.862-29.694-6.572-42.185-5.879-9.884-15.305-17.638-26.191-21.345s-23.15-3.296-33.699 1.283c-3.613 1.568-7.012 3.6-10.244 5.85-10.449 7.266-19.433 17.23-23.424 29.316s-2.323 26.412 6.073 35.978c2.113 2.407 4.583 4.466 6.922 6.652 2.32 2.169 4.516 4.472 6.578 6.889 6.993 8.212 12.558 18.574 11.472 29.306-.154 1.518-1.083 3.476-2.561 3.082-.815-13.079-6.892-25.757-16.582-34.581-2.654-2.417-5.558-4.552-8.085-7.103-10.021-10.117-12.788-26.061-8.938-39.768s13.561-25.236 25.129-33.538c3.523-2.53 7.246-4.807 11.207-6.568 16.147-7.183 35.931-4.99 50.504 5.007s23.661 27.308 24.3 44.969c.13 3.57-.064 7.143-.374 10.703-.796 9.061-2.554 18.483-8.21 25.61-4.973 6.267-12.49 10.134-17.434 16.421-3.503 4.452-5.548 9.984-6.083 15.623-.187 1.978-.932 4.666-2.911 4.452-2.153-3.146-1.344-7.387-.238-11.034 1.291-4.265 2.912-8.51 5.632-12.039 4.483-5.819 11.539-9.169 16.265-14.797zm-58.637 53.399c-5.622-1.919-11.575-5.342-12.902-11.134-.514-2.246.117-5.131 2.303-5.863 1.404-.471 2.918.117 4.292.676 14.122 5.722 30.306 8.676 44.505 3.138 2.139-.836 4.412-1.875 6.641-1.317-.879 3.907-5.177 5.913-9.041 6.969-14.817 4.051-31.112 2.42-44.832-4.485-.739.264-.943 1.293-.592 1.998s1.06 1.147 1.741 1.535c13.25 7.56 29.735 9.208 44.218 4.418.702.221.153 1.287-.468 1.681-10.449 6.669-24.133 6.385-35.865 2.384z"/><path d="M154.577 287.664c-.482-2.5-2.487-4.371-4.319-6.14s-3.707-3.857-3.787-6.4 2.804-5.108 4.967-3.764c12.324 7.664 28.521 8.687 41.71 2.634 1.468-.675 3.156-2.169 2.364-3.577.976-.608 2.236.418 2.55 1.525.922 3.252-2.457 6.043-5.539 7.433-12.718 5.733-28.24 4.767-40.149-2.497-.739-.03-.341 1.194.277 1.598 10.599 6.956 24.484 8.637 36.433 4.412 1.25-.441 3.012-.752 3.573.448l-6.087 3.74c1.458 2.3.174 5.532-2.038 7.12s-5.044 1.952-7.752 2.262c-4.371.502-8.87.98-13.122-.167s-8.252-4.305-9.081-8.627m25.192 3.941c1.841-.478 3.88-1.554 4.114-3.443l-2.908.666c-2.136.488-4.285.979-6.474 1.046-.842.027-1.685-.01-2.524-.077-4.445-.338-8.83-1.431-12.915-3.215-.675 1.273.334 2.814 1.498 3.663 2.948 2.152 6.872 2.259 10.522 2.216 2.921-.04 5.866-.124 8.687-.856zM79.853 147.272c5.204 1.434 10.268 3.376 15.094 5.792.609.304 1.23.629 1.672 1.15 1.196 1.407.24 3.991-1.581 4.282-.906.143-1.815-.191-2.668-.535a88.89 88.89 0 0 1-15.398-8.049c-.291-.19-.592-.391-.766-.692-.451-.768.181-1.808 1.023-2.105s1.765-.081 2.624.157zm22.508 75.656c-3.784 3.847-7.948 7.323-12.407 10.365-.562.384-1.15.769-1.819.902-1.811.361-3.603-1.731-2.968-3.466.315-.862 1.05-1.49 1.765-2.069 4.516-3.643 9.389-6.838 14.526-9.532.308-.161.632-.325.976-.331.893-.02 1.491 1.039 1.341 1.918s-.789 1.578-1.414 2.213zm38.662-114.716c-1.431.338-2.644-1.02-3.486-2.226l-10.469-14.994c-.695-1 .562-2.41 1.778-2.323s2.163 1.036 2.995 1.928c3.513 3.774 7.05 7.581 9.717 11.993.571.946 1.113 1.962 1.146 3.065s-.608 2.303-1.681 2.557z"/><path d="M137.413 176.08c1.501-.875 3.63-2.015 3.045-3.653-1.006-2.814.572-6.04 2.975-7.815s5.441-2.41 8.393-2.877c.408-.064.825-.131 1.186-.331.679-.375 1.023-1.137 1.381-1.822 2.954-5.712 9.736-9.178 16.097-8.226 1.939.291 4.024.926 5.772.037.762-.388 1.364-1.026 2.053-1.538 2.6-1.928 6.163-1.828 9.358-1.31 3.32.538 7.05 1.842 8.203 5.004.625 1.721 1.059 4.328 2.878 4.101 3.332-.414 6.835.963 8.994 3.533s2.911 6.257 1.929 9.469c2.814 1.514 4.355 4.857 4.241 8.052s-1.674 6.207-3.793 8.6c2.971 2.591 3.252 7.507 1.033 10.77s-6.445 4.823-10.365 4.412c-1.043-.111-1.916.708-2.745 1.347-3.7 2.864-8.787 2.887-13.466 2.784-.592-.014-1.29-.084-1.588-.595-.565-.959.866-1.828 1.959-2.039l9.512-1.825c.899-.174 1.164-1.461.662-2.226s-1.437-1.103-2.316-1.357a33.78 33.78 0 0 0-21.933 1.163c-2.34.953-3.099 4.208-1.939 6.451s3.7 3.493 6.207 3.817 5.037-.13 7.541-.478c3.289-.458 6.698-.729 9.883.211s6.13 3.332 6.862 6.571c.301 1.324.127 2.911-.959 3.73s-3.095.087-2.965-1.267c.167-1.718-1.079-3.335-2.63-4.094s-3.346-.816-5.071-.739c-4.238.194-8.466 1.127-12.688.695s-8.653-2.664-10.014-6.681c-1.303-3.851-8.683-2.196-9.877-6.083-.471-1.535-2.503-1.792-4.111-1.759l-9.639.201c-3.35.07-7.471-.328-8.801-3.399-1.05-2.43.327-5.188 1.828-7.367.475-.692-.013-1.604-.391-2.353-1.908-3.797-.378-8.968 3.299-11.114m17.742-9.355c-2.347-1.872-5.783-.682-8.51.575-.869.401-1.805.869-2.206 1.738-1.04 2.249 2.316 4.662 1.521 7.009-.518 1.521-2.403 1.955-3.948 2.4-1.574.454-3.145 1.223-4.071 2.573s-.979 3.393.231 4.499c1.036.946 2.841 1.184 3.232 2.531.765 2.64-4.943 3.529-4.469 6.237.268 1.53 2.276 1.881 3.831 1.878l10.562-.023c.896-.004 2.052-.211 2.206-1.093.685-3.944 3.77-7.157 7.363-8.921s7.658-2.293 11.652-2.581a114.13 114.13 0 0 1 12.324-.224c.748-1.38 1.574-2.834 2.951-3.583s3.473-.397 4.001 1.083c-1.611.151-3.048 1.437-3.376 3.018a3.92 3.92 0 0 0 1.898 4.112c1.488.815 3.965 1.39 3.503 3.021-.297 1.043-1.671 1.254-2.754 1.197-2.65-.134-5.966-1.407-5.906-4.061.023-.956-1.243-1.304-2.199-1.324-5.485-.114-10.987.522-16.301 1.882-2.497.638-5.051 1.491-6.892 3.292s-2.748 4.793-1.464 7.026 5.103 2.657 6.353.404c1.384-2.493 4.336-3.593 7.066-4.415 7.678-2.306 16.462-3.82 23.324.321 2.313 1.394 4.402 3.423 7.079 3.784 2.517.337 5.178-1.073 6.308-3.346s.648-5.248-1.144-7.046c-1.012-1.019-2.393-2.764-1.153-3.496 1.946-1.15 3.707-2.805 4.409-4.954s.083-4.82-1.832-6.019c-.845-.529-1.858-.746-2.687-1.301s-1.441-1.688-.929-2.54c1.23-2.052 1.009-4.873-.525-6.708s-4.272-2.551-6.508-1.702c-1.196.455-2.55-.34-3.282-1.393s-1.05-2.33-1.611-3.48c-2.41-4.913-9.9-6.3-13.911-2.573-.742.691-1.381 1.52-2.257 2.035s-2.119.615-2.817-.12c-2.527-2.664-6.896-1.999-10.372-.812-2.383.812-5.023 2.125-5.562 4.582-.321 1.471.218 3.012 0 4.502s-1.952 2.955-3.128 2.016zm56.724-60.271c-.671.919-1.624 1.948-2.73 1.691-.806-.187-1.314-1.049-1.357-1.875s.27-1.628.601-2.387a50.32 50.32 0 0 1 7.701-12.437c.849-1.006 1.879-2.052 3.196-2.122a2.6 2.6 0 0 1 2.366 1.327 2.6 2.6 0 0 1-.184 2.707l-9.593 13.096zm54.011 125.024a2.38 2.38 0 0 1-.538 2.547 2.38 2.38 0 0 1-2.564.438c-4.452-2.029-8.643-4.633-12.434-7.728-.762-.622-1.584-1.461-1.413-2.43.15-.859 1.082-1.404 1.955-1.417s1.694.374 2.477.762c3.603 1.785 7.119 3.754 10.525 5.893.795.501 1.634 1.063 1.992 1.935zm-15.85-75.887c-1.678.505-3.563-1.283-3.145-2.985.468-1.918 2.831-2.553 4.786-2.837l5.696-.829c1.083-.157 2.189-.315 3.265-.124s2.143.792 2.608 1.781.12 2.37-.883 2.811a22.39 22.39 0 0 1-8.516 1.876c-1.277.023-2.584-.061-3.811.307zm-52.964 15.008c.735.143 1.183.912 1.337 1.644s.11 1.504.347 2.216c.672 2.036 3.142 2.691 4.937 3.861.806.524 1.581 1.487 1.173 2.356-.3.639-1.096.862-1.798.913-3.844.28-7.634-2.805-8.135-6.628-.238-1.755.434-3.888 2.139-4.362zm-22.969 2.065c-2.18.201-3.273 2.627-4.61 4.366-2.483 3.232-7.163 4.565-10.976 3.128-.759-.287-1.608.274-2.006.983s-.488 1.541-.738 2.313c-1.164 3.579-6.288 5.1-9.216 2.73-1.494-1.209-2.115-3.903-.457-4.883.508 1.812 2.754 2.811 4.535 2.21s2.935-2.524 2.915-4.406c-.017-1.297-.532-2.58-1.417-3.526-.863-.919.595-2.433 1.831-2.186s2.079 1.35 3.049 2.159c2.69 2.25 7.042 2.166 9.646-.18s3.135-6.668 1.176-9.576c.412-1 1.852-1.137 2.805-.625s1.594 1.44 2.38 2.175c3.322 3.109 9.579 1.896 11.501-2.229.732-1.578 1.537-3.844 3.249-3.523 1.788.334 1.587 2.998.722 4.599-2.307 4.282-6.912 8.005-11.662 6.956-.909-.201-1.805-.572-2.727-.485z"/></g></svg>