<svg xmlns="http://www.w3.org/2000/svg" viewBox="0 0 343 386" fill-rule="evenodd" stroke-linejoin="round" stroke-miterlimit="2" xmlns:v="https://vecta.io/nano"><path d="M183.33 6.919a25 25 0 0 0-24.551 0L12.724 89.244A25 25 0 0 0 0 111.022v163.619a25 25 0 0 0 12.724 21.778l146.055 82.325a25 25 0 0 0 24.551 0l146.055-82.325a25 25 0 0 0 12.724-21.778V111.022a25 25 0 0 0-12.724-21.778L183.33 6.919z" fill="#fff"/><path d="M179.272 20.404a16.67 16.67 0 0 0-16.434 0L23.255 99.502c-5.223 2.959-8.45 8.498-8.45 14.5v157.659c0 6.002 3.227 11.541 8.45 14.5l139.583 79.098a16.67 16.67 0 0 0 16.434 0l139.583-79.098c5.222-2.959 8.45-8.498 8.45-14.5V114.002c0-6.002-3.228-11.541-8.45-14.5L179.272 20.404z" fill="#e72a0b"/><path d="M159.848 98.681c2.689-.984 5.656.474 7.876 2.288 4.064 3.322 6.946 7.877 9.238 12.602 2.103-4.985 6.272-9.066 11.308-11.06.913-.365 1.906-.662 2.874-.482 1.538.289 2.635 1.781 2.895 3.327s-.167 3.117-.729 4.579c-1.424 3.72-3.708 7.038-5.974 10.319l-12.573 18.212c-.7 1.01-1.949 2.145-2.962 1.454-6.251-9.28-12.611-18.807-15.309-29.667-.532-2.141-.918-4.382-.499-6.548s1.785-4.265 3.855-5.024zm-20.379 95.989c6.85 4.353 15.891 5.028 23.311 1.739 5.983-2.652 11.115-7.722 17.639-8.237 6.318-.498 12.041 3.436 18.17 5.057 11.786 3.113 23.94-2.48 34.845-7.923-5.241 7.923-14.19 13.277-23.65 14.145a685 685 0 0 1 30.605 47.242c9.452-17.425 26.076-30.815 45.11-36.337 1.688-.49 3.607-.896 5.124 0s1.772 3.654.092 4.177c-10.834 3.398-22.188 7.119-29.88 15.464-4.76 5.166-7.789 11.79-12.85 16.654-2.753 2.644-6.31 5.179-6.624 8.979-.469 5.731-4.382 11.043-9.716 13.193s-11.835 1.035-16.151-2.77c-3.628 9.243-17.123 12.682-24.735 6.31-3.465 8.237-14.509 12.242-22.448 8.132-2.983 4.353-8.288 7.009-13.558 6.792s-10.34-3.302-12.954-7.885c-3.541 3.95-10.135 4.684-14.455 1.6s-5.777-9.552-3.192-14.19c-4.022.427-8.367-.256-11.446-2.879s-4.395-7.507-2.175-10.888c-4.424 1.985-10.168.368-12.9-3.641s-2.149-9.942 1.316-13.34c-6.364.762-12.213-6.465-10.147-12.527.645-1.894-1.605-3.415-3.465-4.16l-35.097-14.048c3.519-2.481 8.333-1.534 12.456-.281 9.427 2.857 18.535 6.775 27.094 11.651 3.293 1.877 7.064-1.215 10.634-2.492 3.812-1.362 8.484-.352 11.064 2.769s2.539 8.237-.385 11.04c3.637-1.685 8.3-.809 11.073 2.086s3.457 7.588 1.617 11.153c4.064-2.074 9.448-1.119 12.553 2.22s3.657 8.782 1.29 12.682c6.611-.238 12.033 7.659 9.431 13.743-1.487 3.485-.779 7.897 1.99 10.482s7.499 2.895 10.374.427 3.133-7.508.318-10.042c-4.391-3.943-7.349-9.444-8.216-15.276 4.349 2.443 7.152 6.855 9.934 10.998s5.991 8.388 10.658 10.152 11.061-.222 12.2-5.078c.826-3.515-1.248-6.993-3.234-10.009l-10.709-16.281c-.951-1.45-1.948-3.101-1.609-4.802s2.862-2.815 3.847-1.386l14.295 20.722c2.501 3.624 5.14 7.378 9.003 9.498s9.318 2.023 12.075-1.412c3.984-4.965-.017-12.125-3.758-17.274a236.59 236.59 0 0 1-18.9-30.66c2.12-1.085 4.378 1.127 5.74 3.084l23.072 33.127c2.782 3.993 6.297 8.396 11.157 8.492 5.585.109 9.645-6.02 9.456-11.601s-3.33-10.583-6.372-15.267l-19.83-30.572c-3.766-5.806-10.604-8.693-17.031-11.257-2.316-.922-4.688-1.86-7.181-1.94-5.534-.18-10.206 3.754-15.053 6.427-8.124 4.475-18.028 5.597-26.948 3.05-4.131-1.177-8.178-3.222-10.797-6.624s-3.506-8.362-1.336-12.07c2.359-4.031 7.328-5.505 11.744-7.026 10.662-3.674 20.562-9.536 28.912-17.115-6.443-3.398-13.151-6.871-20.424-7.235-7.801-.394-15.263 2.823-22.892 4.504-18.552 4.08-38.96-1.538-52.807-14.539 8.296-.666 15.783 4.458 23.584 7.357a45.99 45.99 0 0 0 26.42 1.643c5.614-1.324 10.947-3.708 16.607-4.81 11.824-2.308 24.669 1.441 33.388 9.754 7.327-5.732 15.535-11.396 24.836-11.572 11.496-.218 21.539 7.977 32.922 9.602 12.975 1.856 25.645-5.073 35.675-13.515 1.881.607 1.152 3.46-.046 5.031-11.015 14.518-32.55 19.876-49.082 12.213-4.617-2.136-8.928-5.182-13.935-6.087-11.148-2.011-20.893 6.858-29.813 13.838-9.787 7.655-20.823 13.717-32.533 17.865-3.092 1.093-6.938 3.163-6.313 6.385.293 1.571 1.659 2.71 3.016 3.569m-25.209 63.725c1.261 2.807 4.709 4.156 7.759 3.737s5.727-2.258 7.977-4.357c.541-.503 1.069-1.031 1.463-1.655.431-.679.699-1.45.909-2.225.377-1.387.582-2.815.62-4.252.033-1.337-.285-2.962-1.542-3.411-2.883-1.03-6.167-.875-8.937.428-2.476 1.164-4.466 3.154-6.301 5.182-1.102 1.215-2.22 2.573-2.371 4.207-.08.8.092 1.613.423 2.346m-14.299-15.318c.394 1.412.821 2.883 1.826 3.947 1.165 1.236 2.967 1.73 4.659 1.605s3.298-.801 4.789-1.613c1.772-.968 3.444-2.154 4.785-3.662 1.382-1.554 2.375-3.41 3.356-5.25.385-.724.783-1.487.783-2.304.004-1.286-1.001-2.413-2.191-2.899s-2.526-.449-3.8-.293c-2.891.351-5.711 1.277-8.245 2.706a12.64 12.64 0 0 0-5.962 7.763m28.795 24.221a8.06 8.06 0 0 0-.725 1.336c-1.37 3.277.072 7.47 3.164 9.213.636.356 1.336.625 2.065.666 1.722.105 3.272-1.018 4.508-2.22 1.052-1.027 1.999-2.154 2.828-3.364 1.089-1.592 1.986-3.369 2.221-5.279.234-1.915-.273-3.985-1.651-5.334-.779-.762-1.902-1.278-2.966-1.03-1.475.339-2.849 1.009-4.177 1.734-2.003 1.089-3.993 2.38-5.267 4.278m-35.067-40.686c-.122 1.37.214 2.904 1.315 3.725 1.668 1.244 4.039.276 5.791-.851a39.21 39.21 0 0 0 5.568-4.336c.783-.729 1.55-1.513 2.019-2.476s.599-2.145.105-3.092c-.583-1.106-1.902-1.668-3.151-1.689s-2.459.407-3.637.83c-2.061.742-4.185 1.538-5.744 3.075a7.8 7.8 0 0 0-2.266 4.814z" fill="#fff" fill-rule="nonzero"/></svg>