<svg xmlns="http://www.w3.org/2000/svg" viewBox="0 0 343 386" fill-rule="evenodd" stroke-miterlimit="10" xmlns:v="https://vecta.io/nano"><path d="M183.33 6.919a25 25 0 0 0-24.551 0L12.724 89.244A25 25 0 0 0 0 111.022v163.619a25 25 0 0 0 12.724 21.778l146.055 82.325a25 25 0 0 0 24.551 0l146.055-82.325a25 25 0 0 0 12.724-21.778V111.022a25 25 0 0 0-12.724-21.778L183.33 6.919z" fill="#fff"/><path d="M179.272 20.404a16.67 16.67 0 0 0-16.434 0L23.255 99.502c-5.223 2.959-8.45 8.498-8.45 14.5v157.659c0 6.002 3.227 11.541 8.45 14.5l139.583 79.098a16.67 16.67 0 0 0 16.434 0l139.583-79.098c5.222-2.959 8.45-8.498 8.45-14.5V114.002c0-6.002-3.228-11.541-8.45-14.5L179.272 20.404z" fill="#e72a0b"/><g fill="#fff" fill-rule="nonzero"><path d="M198.487 104.244l-.026-.07c-.548-2.193-.067-4.261.35-6.481l1.301-6.89c.182-.973.387-1.998 1.23-2.655a1.6 1.6 0 0 1 1.263-.335c1.028.192 1.323 1.268 1.457 2.194.566 3.948.287 8.014-.809 11.852-.223.782-.495 1.582-1.051 2.186s-1.867.653-2.224.649c-.511-.011-1.223.011-1.491-.45zm20.958 11.363l.026-.074c.958-2.05 2.642-3.366 4.375-4.837l5.374-4.568c.76-.645 1.565-1.316 2.638-1.308.455.003.902.18 1.2.519.682.786.231 1.807-.25 2.614-2.057 3.433-4.844 6.43-8.127 8.745-.671.472-1.39.929-2.203 1.054s-1.87-.645-2.142-.87c-.403-.331-.973-.752-.891-1.275zm16.359 20.059l.049-.059c1.602-1.611 3.633-2.29 5.765-3.097l6.614-2.511c.936-.353 1.923-.718 2.933-.353.425.154.79.471.95.892.377.966-.398 1.78-1.125 2.378-3.104 2.543-6.752 4.442-10.632 5.526-.79.221-1.625.409-2.429.258s-1.54-1.231-1.722-1.534c-.265-.449-.66-1.036-.403-1.5zm11.314 23.532l.067-.037c2.091-.907 4.234-.785 6.518-.756l7.084.103c1.002.015 2.053.041 2.855.753.339.298.555.726.547 1.176-.015 1.035-1.039 1.504-1.937 1.791a29.45 29.45 0 0 1-11.948 1.217c-.82-.085-1.662-.218-2.355-.656s-.965-1.707-1.021-2.058c-.078-.508-.224-1.198.19-1.533zm-97.161-17.877c-.481.586-.82 1.272-1.279 1.873-1.967 2.57-5.709 3.134-8.023 5.405-.969.947-1.789 2.252-3.134 2.47-2.139.343-2.627 4.048-4.792 3.933-.689.17-1.01-.929-.619-1.518s1.103-.933 1.424-1.564c.22-.431.22-.943.399-1.393.67-1.685 3.271-1.667 4.341-3.138.544-.748.768-1.928 1.684-2.083 3.664-.615 6.906-3.273 8.195-6.72.272-.727 1.01-1.154 1.696-1.527l4.538-2.462c.533-.292 1.092-.586 1.7-.605s1.274.343 1.382.937c.064.346-.071.7-.242 1.01-1.479 2.654-5.34 3.026-7.27 5.382zm-20.94 8.83c-.723.52-1.311 1.194-1.893 1.865l-3.104 3.576c-1.368 1.574-2.787 3.193-4.666 4.115-.726.357-1.572.604-2.344.361s-1.363-1.143-1.024-1.873c.6-1.29 3.089-.741 3.547-2.09.608-1.799 2.419-2.861 3.775-4.199 1.364-1.35 2.337-3.086 3.88-4.236s4.035-1.457 5.209.059c-.767 1.165-2.247 1.607-3.38 2.422z"/><path d="M253.576 245.392L208.783 259.7l46.343-12.697.548-7.123c3.242.24 4.412 4.882 2.613 7.558s-5.169 3.775-8.285 4.693l-52.897 15.587c-.146 3.547.991 6.275.864 9.35-.25 6.042-1.151 11.067-3.808 16.181-6.999 1.069-15.253-.41-23.794-1.217 2.672-7.672 4.371-11.536 2.593-18.47-4.859 4.387-12.901 4.8-18.196.929-2.631-1.921-4.509-4.66-6.335-7.34L78.068 163.825c-1.595-2.345.485-5.486 2.836-7.09s5.292-2.887 6.276-5.541c3.357-9.088 11.802-16.147 21.42-17.906 1.36-.247 2.482-1.158 3.544-2.035l45.862-38.006c1.327-1.099 2.832-2.263 4.561-2.182 2.031.095 3.525 1.843 4.755 3.447l78.015 101.77c1.095 1.427 1.569 4.28-.242 4.28-3.25 0-4.722 4.461-3.369 7.385s4.267 4.759 6.581 7.019 4.148 5.755 2.635 8.601c3.461 1.629 5.996 5.043 6.536 8.796-.377 1.313-2.486.918-3.32-.166s-1.212-2.584-2.4-3.273-2.691-.281-3.999.143c-17.977 5.836-36.222 11.801-51.869 22.327l52.35-17.479c1.237-.412 2.56-.829 3.827-.519s2.359 1.673 1.874 2.875c-19.925 4.645-39.329 11.469-57.746 20.306l52.883-16.947c2.061-.66 5.039-.9 5.698 1.143-19.665 5.677-39.397 11.377-58.145 19.539l48.274-14.489c2.828-.848 5.984-1.684 8.671-.431m-63.869 9.972c-.525.273-1.077.48-1.624.69-1.096.575-1.968 1.095-3.317 1.906-.227.118-.462.217-.701.317-1.077.387-2.426.992-3.052 1.382l-.205.122c.004-.004.053-.029.094-.055-1.252.774-1.677 1.235-2.758 2.156-.212.163-.917.546-1.301.937-.409.369-.801.752-1.162 1.161-.231.159-.939.538-1.413.649-.07.015-.145.022-.219.026.003-.199.126-.314.327-.314.056-.014.332.012.168-.036-.112-.048-.235-.078-.35-.023-.268.177-.447.469-.563.76.026.074.198.066.272.081.403-.004.809-.122 1.178-.28.723-.439 1.032-.878 1.435-1.161 1.196-.528 2.127-1.519 2.671-1.792.399-.258 1.092-.572 1.793-.844.279-.115.738-.332.917-.432a4.58 4.58 0 0 0 .771-.309c.98-.494 1.841-1.18 2.761-1.77.496-.295 1.1-.726 1.506-.97.73-.357 1.464-.8 1.997-1.128.738-.468 1.293-.829 2.117-1.301.965-.623 1.874-1.25 2.873-1.766-1.442.549-3.104 1.504-4.215 1.994zM162.72 93.527l-76.088 62.725 76.196 105.365c.287.398.622.829 1.111.918.562.103 1.084-.291 1.524-.66l76.408-64.528-79.151-103.82m-1.424 173.97c.656-.844.038-2.046-.581-2.92L86.93 160.201c-.511-.723-1.073-1.486-1.908-1.792-1.751-.645-3.596 1.235-3.641 3.086s1.07 3.506 2.136 5.021c21.934 31.148 43.331 62.662 64.181 94.526 3.798 5.799 8.221 11.864 14.415 15.053-1.543-3.278-2.739-6.12-.817-8.598m84.38-49.972c-3.302-2.81-5.813-6.519-7.185-10.607-.689-.324-1.464.195-2.046.682l-42.027 35.245c-.943.792-1.972 1.762-1.916 2.982.064 1.386 1.591 2.337 2.993 2.308s2.679-.752 3.894-1.442c14.798-8.424 30.65-15.038 47.077-19.642 1.014-3.233 1.804-7.318-.79-9.526m-80.448 50.3c-.227.668-.801 1.147-1.248 1.696a5 5 0 0 0-.973 4.218c.041.18.13.391.313.42.093.015.19-.026.276-.066l5.757-2.577c.526-.236 1.152-.69.95-1.224-.253-.668.369-1.353 1.014-1.667s1.409-.483 1.867-1.028.239-1.652-.481-1.622c-.246.011-.462.151-.663.284-1.64 1.094-3.376 2.304-4.062 4.14-.179.475-.969.405-1.241-.026s-.168-.992-.004-1.475a7.4 7.4 0 0 1 3.056-3.849c.451-.28.962-.549 1.167-1.036s-.198-1.205-.705-1.047a7.83 7.83 0 0 0-5.023 4.859m11.72-6.105c-.541.336-1.092.686-1.45 1.209s-.462 1.269-.074 1.766c4.334-3.24 9.193-5.718 14.026-8.173l3.227-1.641 1.763-.895c.805-.41.332-1.785-.548-2.002s-1.759.28-2.526.756l-14.418 8.98z" stroke="#fff" stroke-width="1.48"/><path d="M130.683 134.969c1.435-.848 1.323-2.979 2.351-4.284 1.29-1.64 3.884-1.478 5.59-2.691 1.897-1.346 2.65-4.317 4.957-4.66 1.568-.232 2.899-1.25 4.054-2.323 2.657-2.47 2.955-1.032 4.468-4.313.537-1.161 3.622-1.659 4.532-2.562s2.414-1.383 3.514-.712c-1.361 6.341-9.298 4.819-12.57 10.588-2.098 3.702-5.884 4.904-9.223 7.565-2.978 2.371-5.877 4.856-8.456 7.65-2.806 3.045-5.928 5.788-9.044 8.524l-6.562 5.766c-.921.811-2.072 1.677-3.265 1.356s-1.263-2.569-.033-2.448c2.158.211 1.781-3.756 3.67-4.807a54.64 54.64 0 0 0 8.08-5.486c1.71-1.401 3.435-3.089 3.719-5.268.205-1.622 2.802-1.062 4.218-1.895zm27.893-13.22c.663-.94 2.351-.126 2.474 1.01s-.708 2.145-1.55 2.931a20.84 20.84 0 0 1-5.742 3.797c-.477.214-.88.564-1.271.911l-2.232 1.968-9.6 8.435c-.63.553-1.371 1.14-2.21 1.058s-1.445-1.312-.741-1.765a11.89 11.89 0 0 0 3.559-3.58c1.971-3.101 5.932-4.391 8.299-7.208.771-.918 1.427-2.035 2.549-2.481 2.593-1.021 4.87-2.813 6.465-5.076z"/><g stroke="#fff" stroke-width="1.48"><path d="M163.182 166.726c1.312.999 3.212.225 4.569-.712s2.873-2.079 4.486-1.706c1.387.32 2.292 1.732 2.464 3.133s-.239 2.798-.645 4.151c-.563 1.888 1.118 3.643 2.653 4.889s3.261 2.927 2.803 4.84c-.31 1.287-1.584 2.168-2.896 2.43s-2.664.022-3.98-.214c-1.762-.321-3.313 1.246-4.08 2.846s-1.174 3.44-2.426 4.708-3.846 1.442-4.535-.199l-2.166-5.158c-.149-.357-.313-.73-.614-.98-.388-.317-.928-.365-1.431-.398l-5.266-.351c-1.319-.088-2.154-1.618-1.945-2.908s1.144-2.345 2.109-3.245 2.023-1.751 2.623-2.919c1.103-2.154.369-4.742-.387-7.038-.608-1.847 1.476-3.68 3.439-3.635 1.968.036 3.667 1.279 5.225 2.466m-9.014 13.021c-.351.535-.418 1.552.227 1.523a16.97 16.97 0 0 1 5.526.663c.272.078.578.203.652.472.682 2.419 1.789 4.719 3.254 6.769l3.029-5.511c.22-.402.444-.808.753-1.151.935-1.047 2.471-1.338 3.883-1.323s2.836.269 4.23.048c.197-.033.41-.081.548-.225.298-.31.082-.819-.157-1.173-1.099-1.64-2.489-3.089-4.092-4.258-.846-.619-1.077-1.81-.894-2.835s.689-1.965 1.062-2.942c.38-1.002-.771-2.038-1.852-2.005s-2.009.73-2.873 1.368-1.856 1.286-2.933 1.187c-.581-.056-1.118-.321-1.636-.583l-3.637-1.839c-.734-.373-1.319.748-1.271 1.559.071 1.198.462 2.356.563 3.554s-.175 2.533-1.14 3.259a13.56 13.56 0 0 0-3.242 3.443z"/><path d="M179.34 197.322c-1.002 1.05-.32 2.746.377 4.014 3.789 6.883 6.871 14.146 9.182 21.645.749 2.429.849 5.943-1.632 6.58-.824.211-1.692-.014-2.49-.302-2.277-.815-4.36-2.149-6.048-3.863-1.006-1.025-2.866-.365-3.712.792s-1.088 2.636-1.736 3.912-2.057 2.429-3.425 1.976a93.71 93.71 0 0 1-8.124-29.87c-10.229-1.135-19.396-8.859-22.139-18.676s1.122-21.114 9.339-27.248 20.268-6.714 29.037-1.375 13.68 16.254 11.805 26.267c-.331 1.773 1.957 2.769 3.731 3.182 6.845 1.6 13.382 4.501 19.139 8.497 1.878 1.305 3.85 3.772 2.43 5.556-.511.645-1.334.948-2.117 1.22l-5.28 1.851c-1.088 4.026 3.946 8.597 1.446 11.949-2.84-.155-5.426-1.597-7.852-3.064a157.91 157.91 0 0 1-17.321-12.129c-1.349-1.077-3.421-2.16-4.61-.914m2.78-8.963c7.14-7.001 6.98-18.44.056-26.721-6.41-7.66-14.559-9.747-22.024-8.206-9.841 2.028-17.947 11.653-18.986 21.051-1.096 9.884 6.443 21.003 16.322 22.846 7.192 1.346 19.516-3.967 24.714-9.062m-3.659 32.852l6.141 3.963c.127.081.257.162.406.177.634.059.652-.922.406-1.5l-9.115-21.394c-.283-.664-.641-1.401-1.334-1.622-.425-.137-.89-.044-1.326.051l-8.896 1.921c-.182.041-.38.085-.51.225-.194.21-.157.535-.101.815a150.31 150.31 0 0 0 6.816 24.361c.533-1.913 1.092-3.878 2.318-5.449 1.219-1.559 3.529-2.624 5.195-1.548m27.572-13.327c-.652-1.302-1.427-2.551-1.856-3.941s-.469-2.979.306-4.21c1.099-1.748 3.402-2.242 5.456-2.577.495-.082.689-.749.477-1.199s-.679-.719-1.118-.962a135.11 135.11 0 0 0-19.013-8.593c-.391-.144-.812-.284-1.222-.192-.585.129-.954.686-1.26 1.198l-3.745 6.249c-.097.162-.198.335-.194.527.004.313.287.546.541.734 6.704 4.888 13.575 9.548 20.6 13.972.305.192.704.384 1.002.185.365-.247.22-.804.026-1.191z"/></g><path d="M196.944 251.154c.075-.14.131-.28.075-.435-.101-.35-.656-.007-.865.122l-.212.147.071-.431c.056-.693-1.435.494-1.625.675l-.395.346-.496.074c-.771.122-1.509.394-2.292.457-1.095.151-2.325-.022-3.245.704-1.707 1.232-2.877 2.433-4.2 4.391l-1.446 1.902c-2.024.657-3.809 1.877-5.392 3.282l-1.849 1.788c-.6-.045-1.412.42-2.191 1.076-.428.269-.89.756-1.226 1.22-.32.376-.6.756-.812 1.103v.003c-.187.31-.324.598-.38.83-.19 1.062.216 2.411 1.188 2.982.481.17.895-.309 1.267-.542.694-.578 1.394-1.22 1.905-1.972 1.155-.973 2.411-2.466 2.541-3.082a.94.94 0 0 0-.141-.546l-.03-.483-.004-.449c.201-.074.436-.152.723-.225 2.459-.586 5.027-.774 7.416-1.619 1.852-.663 3.432-1.873 5.001-3.019.797-.608 1.628-1.353 2.429-2.164.474-.236.992-.749 1.253-.937 1.203-1.109 2.381-2.492 2.69-4.125a2.06 2.06 0 0 0-.037-.317 6.25 6.25 0 0 0 .279-.756zm-7.177 6.046c-.682.328-4.39 1.088-6.477 1.637l-.752.203 1.934-2.308c1.364-1.681 1.267-1.611 2.157-2.252l.399-.273c.641-.232 1.375.007 2.05.026.682.092 1.364-.034 2.045-.045l.764.019c-.391.785-.678 1.618-.987 2.437a.65.65 0 0 1 .033-.1v.004l-.044.107-1.122.545z"/><path d="M190.933 256.544c.094-.236.049-.133 0 0z"/></g></svg>